<svg width="136" height="94" viewBox="0 0 136 94" fill="none" xmlns="http://www.w3.org/2000/svg">
<path d="M134.715 35.5801H134.678L113.604 44.5856L84.7707 56.907C84.658 56.9544 84.5371 56.9792 84.4149 56.9798C84.2927 56.9804 84.1715 56.957 84.0584 56.9107L54.3107 44.5598L32.719 35.5948L32.686 35.5801H32.6493C32.3086 35.5805 31.9819 35.7161 31.741 35.9571C31.5001 36.1982 31.3646 36.5251 31.3643 36.8661V92.714C31.3646 93.055 31.5001 93.3818 31.741 93.6229C31.9819 93.864 32.3086 93.9996 32.6493 94H134.715C135.056 93.9996 135.382 93.864 135.623 93.6229C135.864 93.3818 136 93.055 136 92.714V36.8661C136 36.5251 135.864 36.1982 135.623 35.9571C135.382 35.7161 135.056 35.5805 134.715 35.5801V35.5801Z" fill="white"/>
<path d="M135.082 35.9475C135.045 35.9475 135.008 35.936 134.977 35.9146L84.209 0.531306C84.0545 0.424129 83.8709 0.366852 83.6829 0.367173C83.4949 0.367494 83.3116 0.425397 83.1574 0.5331L32.7549 35.9142C32.7351 35.9281 32.7128 35.9379 32.6893 35.9431C32.6658 35.9484 32.6414 35.9489 32.6177 35.9448C32.5939 35.9406 32.5712 35.9318 32.5509 35.9188C32.5306 35.9059 32.513 35.8891 32.4991 35.8693C32.4853 35.8495 32.4754 35.8273 32.4702 35.8037C32.465 35.7801 32.4644 35.7558 32.4686 35.732C32.4728 35.7083 32.4816 35.6855 32.4945 35.6652C32.5074 35.6448 32.5243 35.6272 32.544 35.6134L82.9466 0.232238C83.1624 0.0814764 83.4192 0.000434589 83.6824 1.74297e-06C83.9455 -0.000431103 84.2025 0.0797651 84.4188 0.229816L135.187 35.613C135.219 35.6354 135.243 35.6674 135.256 35.7044C135.269 35.7414 135.269 35.7815 135.257 35.8188C135.246 35.8562 135.222 35.8888 135.191 35.9119C135.159 35.935 135.121 35.9475 135.082 35.9475L135.082 35.9475Z" fill="#3F3D56"/>
<path d="M35.635 37.2018L83.7327 1.52832L132.195 39.7401L86.2109 67.0211L61.2452 61.3261L35.635 37.2018Z" fill="#E6E6E6"/>
<path d="M63.3528 83.8713H39.5913C39.4454 83.8715 39.3009 83.8429 39.166 83.7872C39.0312 83.7314 38.9086 83.6496 38.8054 83.5464C38.7022 83.4433 38.6203 83.3207 38.5644 83.1859C38.5085 83.051 38.4797 82.9064 38.4797 82.7604C38.4797 82.6144 38.5085 82.4698 38.5644 82.3349C38.6203 82.2 38.7022 82.0775 38.8054 81.9743C38.9086 81.8711 39.0312 81.7893 39.166 81.7336C39.3009 81.6778 39.4454 81.6492 39.5913 81.6494H63.3528C63.4987 81.6492 63.6432 81.6778 63.7781 81.7336C63.9129 81.7893 64.0355 81.8711 64.1387 81.9743C64.2419 82.0775 64.3238 82.2 64.3797 82.3349C64.4356 82.4698 64.4644 82.6144 64.4644 82.7604C64.4644 82.9064 64.4356 83.051 64.3797 83.1859C64.3238 83.3207 64.2419 83.4433 64.1387 83.5464C64.0355 83.6496 63.9129 83.7314 63.7781 83.7872C63.6432 83.8429 63.4987 83.8715 63.3528 83.8713V83.8713Z" fill="#FB7B00"/>
<path d="M48.1164 79.095H39.5913C39.4454 79.0952 39.3009 79.0666 39.166 79.0108C39.0312 78.9551 38.9086 78.8733 38.8054 78.7701C38.7022 78.6669 38.6203 78.5444 38.5644 78.4095C38.5085 78.2746 38.4797 78.13 38.4797 77.984C38.4797 77.838 38.5085 77.6934 38.5644 77.5585C38.6203 77.4236 38.7022 77.3011 38.8054 77.1979C38.9086 77.0948 39.0312 77.0129 39.166 76.9572C39.3009 76.9015 39.4454 76.8729 39.5913 76.873H48.1164C48.2623 76.8729 48.4068 76.9015 48.5417 76.9572C48.6765 77.0129 48.7991 77.0948 48.9023 77.1979C49.0055 77.3011 49.0874 77.4236 49.1433 77.5585C49.1992 77.6934 49.2279 77.838 49.2279 77.984C49.2279 78.13 49.1992 78.2746 49.1433 78.4095C49.0874 78.5444 49.0055 78.6669 48.9023 78.7701C48.7991 78.8733 48.6765 78.9551 48.5417 79.0108C48.4068 79.0666 48.2623 79.0952 48.1164 79.095Z" fill="#FB7B00"/>
<path d="M84.4091 57.0714C84.2285 57.0716 84.0496 57.0366 83.8824 56.9682L54.219 44.6506V6.09457C54.2194 5.75363 54.3549 5.42677 54.5958 5.18569C54.8367 4.94461 55.1633 4.80899 55.504 4.80859H112.411C112.752 4.80899 113.078 4.9446 113.319 5.18569C113.56 5.42677 113.696 5.75363 113.696 6.09457V44.6775L113.64 44.7014L84.9518 56.9622C84.78 57.0344 84.5955 57.0716 84.4091 57.0714V57.0714Z" fill="white"/>
<path d="M84.4091 57.163C84.2165 57.1632 84.0258 57.1259 83.8475 57.053L54.1272 44.7118V6.09438C54.1276 5.72909 54.2728 5.37887 54.5309 5.12057C54.789 4.86226 55.139 4.71697 55.504 4.71655H112.411C112.776 4.71697 113.126 4.86226 113.384 5.12057C113.642 5.37887 113.787 5.72909 113.788 6.09438V44.738L84.9878 57.0464C84.8046 57.1235 84.6078 57.1632 84.4091 57.163V57.163ZM54.4943 44.4664L83.9875 56.7133C84.2626 56.825 84.5706 56.8232 84.8444 56.7082L113.421 44.4954V6.09438C113.42 5.8265 113.314 5.56969 113.125 5.38027C112.935 5.19085 112.679 5.08429 112.411 5.08397H55.504C55.2363 5.08429 54.9797 5.19085 54.7904 5.38027C54.6011 5.56969 54.4947 5.8265 54.4943 6.09438V44.4664Z" fill="#3F3D56"/>
<path d="M134.715 35.5801H134.678L113.604 44.5856L84.7707 56.907C84.658 56.9544 84.5371 56.9792 84.4149 56.9798C84.2927 56.9804 84.1715 56.957 84.0584 56.9107L54.3107 44.5598L32.719 35.5948L32.686 35.5801H32.6493C32.3086 35.5805 31.9819 35.7161 31.741 35.9571C31.5001 36.1982 31.3646 36.5251 31.3643 36.8661V92.714C31.3646 93.055 31.5001 93.3818 31.741 93.6229C31.9819 93.864 32.3086 93.9996 32.6493 94H134.715C135.056 93.9996 135.382 93.864 135.623 93.6229C135.864 93.3818 136 93.055 136 92.714V36.8661C136 36.5251 135.864 36.1982 135.623 35.9571C135.382 35.7161 135.056 35.5805 134.715 35.5801V35.5801ZM135.633 92.714C135.633 92.9576 135.536 93.1912 135.364 93.3634C135.192 93.5357 134.958 93.6325 134.715 93.6326H32.6493C32.4059 93.6325 32.1725 93.5357 32.0003 93.3634C31.8282 93.1912 31.7315 92.9576 31.7314 92.714V36.8661C31.7317 36.6285 31.8238 36.4003 31.9884 36.2291C32.1529 36.0579 32.3772 35.957 32.6144 35.9475L54.3107 44.9567L83.9171 57.2506C84.2376 57.3811 84.5967 57.3791 84.9157 57.245L113.604 44.9842L134.752 35.9475C134.988 35.9577 135.212 36.0589 135.376 36.23C135.54 36.4011 135.632 36.6289 135.633 36.8661V92.714Z" fill="#3F3D56"/>
<path d="M79.7911 19.2211H59.5982C59.2087 19.2211 58.8352 19.0663 58.5598 18.7906C58.2844 18.515 58.1296 18.1412 58.1296 17.7514C58.1296 17.3616 58.2844 16.9878 58.5598 16.7122C58.8352 16.4366 59.2087 16.2817 59.5982 16.2817H79.7911C80.1805 16.2817 80.5541 16.4366 80.8295 16.7122C81.1049 16.9878 81.2596 17.3616 81.2596 17.7514C81.2596 18.1412 81.1049 18.515 80.8295 18.7906C80.5541 19.0663 80.1805 19.2211 79.7911 19.2211Z" fill="#FB7B00"/>
<path d="M69.3275 12.9748H59.5982C59.2087 12.9748 58.8352 12.8199 58.5598 12.5443C58.2844 12.2687 58.1296 11.8949 58.1296 11.5051C58.1296 11.1153 58.2844 10.7415 58.5598 10.4659C58.8352 10.1902 59.2087 10.0354 59.5982 10.0354H69.3275C69.717 10.0354 70.0905 10.1902 70.3659 10.4659C70.6413 10.7415 70.7961 11.1153 70.7961 11.5051C70.7961 11.8949 70.6413 12.2687 70.3659 12.5443C70.0905 12.8199 69.717 12.9748 69.3275 12.9748Z" fill="#FB7B00"/>
<path d="M99.0603 33.9179H68.2203C67.8308 33.9179 67.4573 33.763 67.1818 33.4874C66.9064 33.2118 66.7517 32.838 66.7517 32.4482C66.7517 32.0584 66.9064 31.6846 67.1818 31.409C67.4573 31.1334 67.8308 30.9785 68.2203 30.9785H99.0603C99.4498 30.9785 99.8233 31.1334 100.099 31.409C100.374 31.6846 100.529 32.0584 100.529 32.4482C100.529 32.838 100.374 33.2118 100.099 33.4874C99.8233 33.763 99.4498 33.9179 99.0603 33.9179Z" fill="#CCCCCC"/>
<path d="M99.0603 40.7152H68.2203C67.8308 40.7152 67.4573 40.5604 67.1818 40.2848C66.9064 40.0092 66.7517 39.6353 66.7517 39.2456C66.7517 38.8558 66.9064 38.482 67.1818 38.2063C67.4573 37.9307 67.8308 37.7759 68.2203 37.7759H99.0603C99.4498 37.7759 99.8233 37.9307 100.099 38.2063C100.374 38.482 100.529 38.8558 100.529 39.2456C100.529 39.6353 100.374 40.0092 100.099 40.2848C99.8233 40.5604 99.4498 40.7152 99.0603 40.7152Z" fill="#CCCCCC"/>
<path d="M7.51686 42.4329C7.32606 42.4326 7.14123 42.3663 6.99367 42.2452C6.84611 42.1242 6.74487 41.9558 6.7071 41.7687L6.03915 38.4363C5.6849 36.6687 6.0468 34.8327 7.04522 33.3322C8.04364 31.8317 9.5968 30.7895 11.363 30.435C13.1293 30.0805 14.9639 30.4427 16.4633 31.4418C17.9627 32.441 19.004 33.9953 19.3583 35.7629L20.0261 39.0953C20.0689 39.3102 20.0248 39.5333 19.9035 39.7158C19.7821 39.8982 19.5934 40.025 19.3787 40.0684L7.67964 42.4167C7.62605 42.4274 7.57152 42.4329 7.51686 42.4329Z" fill="#2F2E41"/>
<path d="M28.2862 92.0498L26.1876 92.0496L25.1897 83.9487L28.2869 83.9489L28.2862 92.0498Z" fill="#A0616A"/>
<path d="M24.6885 91.4497H28.7358V94H22.1401C22.1401 93.3236 22.4086 92.6749 22.8865 92.1967C23.3644 91.7184 24.0126 91.4497 24.6885 91.4497Z" fill="#2F2E41"/>
<path d="M6.41927 92.0285L4.48682 91.2096L6.72418 83.3604L9.57614 84.5693L6.41927 92.0285Z" fill="#A0616A"/>
<path d="M3.34044 90.0718L7.06729 91.6514L6.07344 93.9997L4.74407e-05 91.4254C0.130562 91.1171 0.320492 90.8374 0.558997 90.6025C0.797502 90.3676 1.07991 90.182 1.39009 90.0563C1.70028 89.9305 2.03217 89.8672 2.36681 89.8699C2.70145 89.8725 3.03229 89.9411 3.34044 90.0718V90.0718Z" fill="#2F2E41"/>
<path d="M12.891 41.598C15.3811 41.598 17.3997 39.5778 17.3997 37.0858C17.3997 34.5939 15.3811 32.5737 12.891 32.5737C10.4009 32.5737 8.38232 34.5939 8.38232 37.0858C8.38232 39.5778 10.4009 41.598 12.891 41.598Z" fill="#A0616A"/>
<path d="M13.1045 57.6125L13.0582 57.4622C11.8297 53.4657 10.5598 49.3349 9.28808 45.4061L9.25366 45.3001L9.33182 45.2206C11.3058 43.2111 15.0037 42.4095 17.9337 43.3567C20.8826 44.3093 22.9147 46.9815 22.6607 49.5724C22.5256 51.1289 22.9434 52.6833 23.8407 53.9618L23.9584 54.1326L23.7744 54.2288C20.4803 55.9252 16.927 57.0611 13.2602 57.5899L13.1045 57.6125Z" fill="#3F3D56"/>
<path d="M7.66664 90.5728C7.50587 90.5725 7.348 90.5299 7.20893 90.4492L4.77342 89.0416C4.57364 88.9275 4.42425 88.7421 4.35515 88.5225C4.28605 88.303 4.30233 88.0654 4.40072 87.8573L9.81254 75.0064L13.9485 56.2634L21.4861 53.5205L21.5546 53.5521C29.6358 57.267 29.0111 83.8946 28.8038 89.1948C28.7945 89.4178 28.7044 89.6297 28.5505 89.7912C28.3965 89.9526 28.1891 90.0525 27.967 90.0723L25.7004 90.3686C25.47 90.3889 25.2403 90.3222 25.0565 90.1815C24.8727 90.0409 24.7482 89.8366 24.7074 89.6087L20.0802 68.9129C20.0755 68.8736 20.0583 68.8368 20.0311 68.8081C20.0039 68.7794 19.9681 68.7602 19.9292 68.7534C19.8918 68.7462 19.8531 68.7511 19.8188 68.7674C19.7844 68.7836 19.756 68.8104 19.7378 68.8438L8.46928 90.1019C8.40992 90.2086 8.3298 90.3023 8.23365 90.3776C8.1375 90.4528 8.02728 90.508 7.90946 90.54C7.83034 90.5616 7.74868 90.5727 7.66664 90.5728V90.5728Z" fill="#2F2E41"/>
<path d="M10.3737 71.6865C10.5161 71.4788 10.6111 71.2424 10.6523 70.994C10.6935 70.7456 10.6797 70.4911 10.612 70.2485C10.5442 70.006 10.4242 69.7813 10.2603 69.5902C10.0963 69.3991 9.89255 69.2463 9.66324 69.1426L9.78651 65.2079L7.41553 64.5498L7.31944 70.1087C7.17082 70.5058 7.17291 70.9436 7.3253 71.3392C7.47769 71.7348 7.7698 72.0608 8.14628 72.2553C8.52276 72.4498 8.95746 72.4993 9.36799 72.3945C9.77852 72.2896 10.1364 72.0378 10.3737 71.6865H10.3737Z" fill="#A0616A"/>
<path d="M7.35458 67.5276L7.21542 67.5269C6.98607 67.5253 6.76571 67.4374 6.59823 67.2806C6.43075 67.1237 6.32845 66.9095 6.31168 66.6806C6.08428 63.7502 5.38593 53.7683 5.94835 48.3565C6.02286 47.8515 6.19791 47.3665 6.46313 46.9304C6.72835 46.4944 7.07833 46.116 7.49235 45.8177C7.90637 45.5195 8.37599 45.3075 8.8734 45.1942C9.3708 45.0809 9.88587 45.0687 10.3881 45.1583L10.5328 45.1903L10.5318 45.3388C10.4802 52.4591 10.4835 59.5378 10.4868 66.3835C10.4873 66.5926 10.4165 66.7955 10.2862 66.9588C10.1558 67.1221 9.97368 67.2361 9.76987 67.2818C8.97531 67.4463 8.16596 67.5287 7.35458 67.5276Z" fill="#FB7B00"/>
<path d="M12.7521 76.067C12.1451 76.0644 11.56 75.8403 11.1064 75.4368C10.6527 75.0332 10.3618 74.478 10.288 73.8751L10.4877 57.442L7.22396 49.1805C7.08662 48.0953 7.31989 46.9954 7.88589 46.0595C8.45189 45.1236 9.31738 44.4066 10.3419 44.025L11.2144 43.6975C11.3792 43.6356 11.5547 43.607 11.7306 43.6131C11.9066 43.6193 12.0796 43.6602 12.2398 43.7334C12.3999 43.8066 12.544 43.9108 12.6639 44.0399C12.7837 44.169 12.8769 44.3206 12.938 44.4858L16.3034 53.579L16.3042 53.5923C16.5376 57.2114 17.5908 75.224 15.4909 75.7613C14.6011 75.97 13.6898 76.0725 12.7759 76.0668L12.7521 76.067Z" fill="#FB7B00"/>
<path d="M32.1403 65.4822C31.9071 65.3876 31.6975 65.2429 31.5262 65.0584C31.3549 64.8739 31.2262 64.654 31.149 64.4143C31.0718 64.1746 31.0481 63.9209 31.0794 63.671C31.1108 63.4212 31.1966 63.1812 31.3307 62.9681L29.0591 59.7543L30.6739 57.8965L33.8182 62.4801C34.161 62.7292 34.4006 63.0956 34.4915 63.5097C34.5825 63.9238 34.5185 64.3569 34.3117 64.7269C34.1049 65.097 33.7696 65.3783 33.3694 65.5175C32.9692 65.6567 32.5319 65.6441 32.1403 65.4822H32.1403Z" fill="#A0616A"/>
<path d="M29.872 61.3521C29.7534 61.3485 29.6373 61.3165 29.5336 61.2587C29.4299 61.2009 29.3416 61.1191 29.2761 61.02L29.2642 61.0019C25.5055 55.3087 21.6189 49.4217 17.6799 43.553L17.6375 43.4898L17.6917 43.4363C18.0372 43.1136 18.4443 42.8641 18.8886 42.7029C19.3329 42.5416 19.8052 42.4719 20.2771 42.498C20.7629 42.5069 21.2414 42.6182 21.6813 42.8247C22.1212 43.0312 22.5127 43.3282 22.8301 43.6964C26.2723 47.8878 31.185 56.5872 32.6087 59.1538C32.6985 59.3131 32.7251 59.5005 32.6832 59.6786C32.6412 59.8567 32.5337 60.0125 32.3822 60.1148C31.6831 60.5911 30.9343 60.9898 30.149 61.3037C30.0609 61.3384 29.9666 61.3548 29.872 61.3521Z" fill="#FB7B00"/>
<path d="M28.6101 72.404C26.3588 72.4054 18.3037 56.8837 16.7119 53.7721L16.6981 53.7344L14.9371 44.213C14.9051 44.0398 14.9075 43.8619 14.9444 43.6896C14.9812 43.5173 15.0517 43.354 15.1517 43.209C15.2518 43.064 15.3795 42.9402 15.5275 42.8448C15.6755 42.7493 15.8408 42.684 16.0141 42.6527L16.9312 42.4867C18.0064 42.2895 19.1167 42.4618 20.0818 42.9756C21.0468 43.4894 21.81 44.3145 22.2474 45.3171L24.5484 54.9963L32.2424 68.0787C32.4951 68.6392 32.5323 69.2733 32.3467 69.8595C32.1612 70.4457 31.7661 70.9427 31.2371 71.2554C30.455 71.7288 29.6197 72.1078 28.7486 72.3846C28.7036 72.3977 28.657 72.4042 28.6101 72.404H28.6101Z" fill="#FB7B00"/>
<path d="M16.3929 37.1252H7.30615V36.0229C7.30752 34.8053 7.79147 33.6379 8.65183 32.7769C9.51219 31.9159 10.6787 31.4315 11.8954 31.4302H12.6297C13.8464 31.4315 15.013 31.9159 15.8733 32.7769C16.7337 33.6379 17.2176 34.8053 17.219 36.0229V36.2985C17.2188 36.5177 17.1316 36.7278 16.9768 36.8828C16.8219 37.0378 16.6119 37.125 16.3929 37.1252V37.1252Z" fill="#2F2E41"/>
</svg>
