<svg width="108" height="86" viewBox="0 0 108 86" fill="none" xmlns="http://www.w3.org/2000/svg">
<g clip-path="url(#clip0)">
<path d="M54.2136 1.20361L20.3203 19.7941C20.3203 19.7941 20.3203 58.1369 54.2136 79.0512C88.1068 58.1369 88.1068 19.7941 88.1068 19.7941L54.2136 1.20361Z" fill="#3F3D56"/>
<path opacity="0.04" d="M54.416 1.20361L53.8367 1.5214V78.6886C54.0291 78.8098 54.2214 78.9311 54.416 79.0512C88.3093 58.1369 88.3093 19.7941 88.3093 19.7941L54.416 1.20361Z" fill="#FB7B00"/>
<g opacity="0.7">
<path opacity="0.7" d="M46.0082 38.8755L52.3976 44.0958L60.3183 33.9114L63.5131 36.2843L52.3976 48.8417L43.3459 39.8246L46.0082 38.8755Z" fill="url(#paint0_linear)"/>
</g>
<path d="M47.5163 39.189L52.6993 43.4237L60.0419 33.7993L62.6334 35.7242L52.6993 47.2735L45.3567 39.959L47.5163 39.189Z" fill="#3AD29F"/>
<path opacity="0.5" d="M20.7719 5.37164C20.668 5.33131 20.5844 5.25833 20.5369 5.16661C20.4895 5.07488 20.4815 4.97081 20.5146 4.8742C20.5199 4.85939 20.5233 4.84406 20.5246 4.82855V4.82855C20.5276 4.78428 20.5146 4.74033 20.4874 4.7032C20.4602 4.66606 20.4203 4.63772 20.3736 4.62237C20.3269 4.60703 20.276 4.60549 20.2282 4.61799C20.1805 4.63048 20.1385 4.65635 20.1086 4.69176V4.69176C20.0983 4.70432 20.0897 4.71793 20.083 4.73229C20.0377 4.82489 19.9558 4.89943 19.8529 4.94172C19.75 4.98401 19.6333 4.99109 19.5249 4.96163C19.5083 4.95686 19.4911 4.95386 19.4737 4.95268C19.424 4.94998 19.3747 4.96162 19.333 4.98586C19.2914 5.01009 19.2596 5.04565 19.2423 5.08725C19.2251 5.12886 19.2234 5.1743 19.2374 5.21685C19.2514 5.2594 19.2805 5.29679 19.3202 5.32348V5.32348C19.3343 5.33266 19.3495 5.34033 19.3657 5.34632C19.4695 5.38665 19.5532 5.45963 19.6006 5.55135C19.6481 5.64308 19.656 5.74715 19.623 5.84376C19.6176 5.85857 19.6142 5.8739 19.6129 5.88941V5.88941C19.6099 5.93368 19.6229 5.97763 19.6501 6.01476C19.6773 6.0519 19.7172 6.08024 19.7639 6.09559C19.8106 6.11093 19.8616 6.11247 19.9093 6.09998C19.957 6.08748 19.999 6.06161 20.0289 6.0262V6.0262C20.0392 6.01363 20.0478 6.00003 20.0546 5.98567C20.0998 5.89307 20.1817 5.81853 20.2846 5.77624C20.3875 5.73395 20.5043 5.72686 20.6127 5.75633C20.6293 5.7611 20.6465 5.7641 20.6639 5.76528V5.76528C20.7135 5.76798 20.7629 5.75634 20.8045 5.7321C20.8462 5.70786 20.878 5.67231 20.8952 5.6307C20.9124 5.5891 20.9141 5.54366 20.9001 5.50111C20.8861 5.45856 20.8571 5.42117 20.8173 5.39448V5.39448C20.8033 5.3853 20.788 5.37763 20.7719 5.37164V5.37164Z" fill="#4D8AF0"/>
<path opacity="0.5" d="M2.42422 41.775C2.32032 41.7346 2.23669 41.6617 2.18925 41.5699C2.1418 41.4782 2.13385 41.3741 2.16691 41.2775C2.17226 41.2627 2.17563 41.2474 2.17695 41.2319V41.2319C2.17998 41.1876 2.16692 41.1437 2.13973 41.1065C2.11253 41.0694 2.07264 41.041 2.02597 41.0257C1.97929 41.0103 1.92831 41.0088 1.88057 41.0213C1.83283 41.0338 1.79088 41.0597 1.76093 41.0951V41.0951C1.75063 41.1076 1.74203 41.1212 1.73531 41.1356C1.69006 41.2282 1.60819 41.3028 1.50528 41.345C1.40237 41.3873 1.2856 41.3944 1.17721 41.365C1.16059 41.3602 1.1434 41.3572 1.126 41.356V41.356C1.07634 41.3533 1.02702 41.3649 0.985359 41.3892C0.943696 41.4134 0.9119 41.449 0.894681 41.4906C0.877462 41.5322 0.875735 41.5776 0.889757 41.6202C0.903778 41.6627 0.932803 41.7001 0.97253 41.7268C0.986625 41.736 1.00189 41.7437 1.018 41.7496C1.12189 41.79 1.20552 41.863 1.25297 41.9547C1.30042 42.0464 1.30836 42.1505 1.2753 42.2471C1.26995 42.2619 1.26658 42.2772 1.26526 42.2927V42.2927C1.26224 42.337 1.27529 42.381 1.30248 42.4181C1.32968 42.4552 1.36957 42.4836 1.41625 42.4989C1.46293 42.5143 1.51391 42.5158 1.56164 42.5033C1.60938 42.4908 1.65133 42.4649 1.68128 42.4295C1.69158 42.417 1.70018 42.4034 1.70691 42.389C1.75216 42.2964 1.83403 42.2219 1.93694 42.1796C2.03985 42.1373 2.15661 42.1302 2.265 42.1597C2.28162 42.1644 2.29881 42.1674 2.31622 42.1686V42.1686C2.36588 42.1713 2.41519 42.1597 2.45686 42.1354C2.49852 42.1112 2.53031 42.0756 2.54753 42.034C2.56475 41.9924 2.56648 41.947 2.55246 41.9044C2.53843 41.8619 2.50941 41.8245 2.46968 41.7978C2.45559 41.7886 2.44033 41.781 2.42422 41.775V41.775Z" fill="#4D8AF0"/>
<path opacity="0.5" d="M94.0507 29.1229C94.4671 29.1229 94.8047 28.822 94.8047 28.4509C94.8047 28.0797 94.4671 27.7788 94.0507 27.7788C93.6342 27.7788 93.2966 28.0797 93.2966 28.4509C93.2966 28.822 93.6342 29.1229 94.0507 29.1229Z" fill="#F55F44"/>
<path opacity="0.5" d="M15.256 77.1754C15.6724 77.1754 16.01 76.8745 16.01 76.5034C16.01 76.1322 15.6724 75.8313 15.256 75.8313C14.8395 75.8313 14.502 76.1322 14.502 76.5034C14.502 76.8745 14.8395 77.1754 15.256 77.1754Z" fill="#F55F44"/>
<path opacity="0.5" d="M106.869 54.9972C107.285 54.9972 107.623 54.6963 107.623 54.3251C107.623 53.954 107.285 53.6531 106.869 53.6531C106.453 53.6531 106.115 53.954 106.115 54.3251C106.115 54.6963 106.453 54.9972 106.869 54.9972Z" fill="#F55F44"/>
<path opacity="0.5" d="M88.5077 8.61993C88.4038 8.5796 88.3202 8.50662 88.2727 8.4149C88.2253 8.32317 88.2173 8.2191 88.2504 8.12249C88.2557 8.10768 88.2591 8.09235 88.2604 8.07684V8.07684C88.2635 8.03258 88.2504 7.98862 88.2232 7.95149C88.196 7.91435 88.1561 7.88601 88.1095 7.87066C88.0628 7.85532 88.0118 7.85378 87.9641 7.86628C87.9163 7.87877 87.8744 7.90464 87.8444 7.94005C87.8341 7.95262 87.8255 7.96622 87.8188 7.98058C87.7735 8.07318 87.6917 8.14772 87.5888 8.19001C87.4859 8.2323 87.3691 8.23939 87.2607 8.20992C87.2441 8.20515 87.2269 8.20215 87.2095 8.20097V8.20097C87.1598 8.19827 87.1105 8.20991 87.0689 8.23415C87.0272 8.25838 86.9954 8.29394 86.9782 8.33555C86.961 8.37715 86.9592 8.42259 86.9733 8.46514C86.9873 8.50769 87.0163 8.54508 87.056 8.57177V8.57177C87.0701 8.58095 87.0854 8.58862 87.1015 8.59461C87.2054 8.63494 87.289 8.70792 87.3365 8.79964C87.3839 8.89137 87.3919 8.99544 87.3588 9.09205C87.3534 9.10686 87.3501 9.12219 87.3488 9.1377V9.1377C87.3457 9.18196 87.3588 9.22592 87.386 9.26305C87.4132 9.30019 87.4531 9.32853 87.4997 9.34388C87.5464 9.35922 87.5974 9.36076 87.6451 9.34826C87.6929 9.33577 87.7348 9.3099 87.7648 9.27449V9.27449C87.7751 9.26192 87.7837 9.24832 87.7904 9.23396C87.8356 9.14136 87.9175 9.06682 88.0204 9.02453C88.1233 8.98224 88.2401 8.97515 88.3485 9.00462C88.3651 9.00939 88.3823 9.01239 88.3997 9.01357V9.01357C88.4494 9.01627 88.4987 9.00463 88.5403 8.98039C88.582 8.95615 88.6138 8.9206 88.631 8.87899C88.6482 8.83739 88.65 8.79195 88.6359 8.7494C88.6219 8.70685 88.5929 8.66946 88.5532 8.64277C88.5391 8.63359 88.5238 8.62592 88.5077 8.61993V8.61993Z" fill="#4D8AF0"/>
<path opacity="0.5" d="M101.074 78.9627C100.97 78.9224 100.887 78.8494 100.839 78.7577C100.792 78.6659 100.784 78.5619 100.817 78.4653C100.822 78.4504 100.826 78.4351 100.827 78.4196V78.4196C100.83 78.3753 100.817 78.3314 100.79 78.2943C100.762 78.2571 100.723 78.2288 100.676 78.2134C100.629 78.1981 100.578 78.1966 100.53 78.209C100.483 78.2215 100.441 78.2474 100.411 78.2828C100.401 78.2954 100.392 78.309 100.385 78.3234C100.34 78.416 100.258 78.4905 100.155 78.5328C100.052 78.5751 99.9355 78.5822 99.8271 78.5527C99.8105 78.5479 99.7933 78.5449 99.7759 78.5437V78.5437C99.7262 78.541 99.6769 78.5527 99.6353 78.5769C99.5936 78.6012 99.5618 78.6367 99.5446 78.6783C99.5274 78.7199 99.5256 78.7654 99.5397 78.8079C99.5537 78.8505 99.5827 78.8878 99.6224 78.9145V78.9145C99.6365 78.9237 99.6518 78.9314 99.6679 78.9374C99.7718 78.9777 99.8554 79.0507 99.9029 79.1424C99.9503 79.2341 99.9583 79.3382 99.9252 79.4348C99.9199 79.4496 99.9165 79.465 99.9152 79.4805V79.4805C99.9121 79.5247 99.9252 79.5687 99.9524 79.6058C99.9796 79.643 100.019 79.6713 100.066 79.6866C100.113 79.702 100.164 79.7035 100.212 79.691C100.259 79.6785 100.301 79.6527 100.331 79.6173V79.6173C100.341 79.6047 100.35 79.5911 100.357 79.5767C100.402 79.4841 100.484 79.4096 100.587 79.3673C100.69 79.325 100.807 79.3179 100.915 79.3474C100.932 79.3522 100.949 79.3552 100.966 79.3563V79.3563C101.016 79.359 101.065 79.3474 101.107 79.3232C101.148 79.2989 101.18 79.2634 101.197 79.2218C101.215 79.1802 101.216 79.1347 101.202 79.0922C101.188 79.0496 101.159 79.0122 101.12 78.9855C101.105 78.9764 101.09 78.9687 101.074 78.9627V78.9627Z" fill="#4D8AF0"/>
<path opacity="0.5" d="M1.54433 20.493C1.44044 20.4526 1.35681 20.3797 1.30936 20.2879C1.26192 20.1962 1.25397 20.0921 1.28703 19.9955C1.29238 19.9807 1.29575 19.9654 1.29707 19.9499V19.9499C1.30009 19.9056 1.28704 19.8617 1.25985 19.8245C1.23265 19.7874 1.19276 19.7591 1.14608 19.7437C1.09941 19.7284 1.04842 19.7268 1.00069 19.7393C0.952951 19.7518 0.911001 19.7777 0.88105 19.8131C0.870751 19.8257 0.862149 19.8393 0.855426 19.8536C0.810177 19.9462 0.728304 20.0208 0.625394 20.0631C0.522483 20.1053 0.405719 20.1124 0.297328 20.083C0.28071 20.0782 0.263521 20.0752 0.246114 20.074V20.074C0.196453 20.0713 0.147139 20.083 0.105476 20.1072C0.0638132 20.1314 0.0320174 20.167 0.0147983 20.2086C-0.00242068 20.2502 -0.00414747 20.2956 0.00987405 20.3382C0.0238956 20.3807 0.0529201 20.4181 0.0926474 20.4448V20.4448C0.106742 20.454 0.122004 20.4617 0.138115 20.4677C0.24201 20.508 0.325641 20.581 0.373087 20.6727C0.420533 20.7644 0.42848 20.8685 0.395419 20.9651C0.390069 20.9799 0.386699 20.9952 0.385378 21.0108V21.0108C0.382355 21.055 0.395407 21.099 0.422602 21.1361C0.449797 21.1732 0.489687 21.2016 0.536365 21.2169C0.583043 21.2323 0.634026 21.2338 0.681762 21.2213C0.729498 21.2088 0.77145 21.1829 0.801401 21.1475V21.1475C0.8117 21.135 0.820301 21.1214 0.827025 21.107C0.872273 21.0144 0.954145 20.9399 1.05706 20.8976C1.15997 20.8553 1.27673 20.8482 1.38512 20.8777C1.40174 20.8824 1.41893 20.8854 1.43634 20.8866V20.8866C1.486 20.8893 1.53531 20.8777 1.57697 20.8534C1.61864 20.8292 1.65043 20.7936 1.66765 20.752C1.68487 20.7104 1.68659 20.665 1.67257 20.6225C1.65855 20.5799 1.62953 20.5425 1.5898 20.5158C1.57571 20.5066 1.56045 20.499 1.54433 20.493V20.493Z" fill="#4D8AF0"/>
<path opacity="0.5" d="M9.97789 32.4833C10.3943 32.4833 10.7319 32.1824 10.7319 31.8112C10.7319 31.4401 10.3943 31.1392 9.97789 31.1392C9.56146 31.1392 9.22388 31.4401 9.22388 31.8112C9.22388 32.1824 9.56146 32.4833 9.97789 32.4833Z" fill="#47E6B1"/>
<path opacity="0.5" d="M107.246 37.8595C107.663 37.8595 108 37.5586 108 37.1874C108 36.8163 107.663 36.5154 107.246 36.5154C106.83 36.5154 106.492 36.8163 106.492 37.1874C106.492 37.5586 106.83 37.8595 107.246 37.8595Z" fill="#47E6B1"/>
<g opacity="0.5">
<path opacity="0.5" d="M73.6922 0H73.3152V1.90418H73.6922V0Z" fill="#47E6B1"/>
<path opacity="0.5" d="M74.572 1.11997V0.783936L72.4356 0.783936V1.11997H74.572Z" fill="#47E6B1"/>
</g>
<g opacity="0.5">
<path opacity="0.5" d="M75.0748 74.5991H74.6978V76.5033H75.0748V74.5991Z" fill="#47E6B1"/>
<path opacity="0.5" d="M75.9546 75.7191V75.3831H73.8182V75.7191H75.9546Z" fill="#47E6B1"/>
</g>
<g opacity="0.5">
<path opacity="0.5" d="M3.69488 78.6313H3.31787V80.5355H3.69488V78.6313Z" fill="#47E6B1"/>
<path opacity="0.5" d="M4.57446 79.7513V79.4153H2.43809V79.7513H4.57446Z" fill="#47E6B1"/>
</g>
<g opacity="0.5">
<path opacity="0.5" d="M89.5269 44.3562H89.1499V46.2604H89.5269V44.3562Z" fill="#47E6B1"/>
<path opacity="0.5" d="M90.4065 45.4762V45.1401H88.2701V45.4762H90.4065Z" fill="#47E6B1"/>
</g>
<path opacity="0.5" d="M99.9832 13.7794L100.793 14.4409L101.94 12.9373L102.345 13.238L100.793 15.0424L99.6458 13.8997L99.9832 13.7794Z" fill="#47E6B1"/>
<path d="M76.868 26.8009L74.075 26.8975L74.2142 30.0983L77.0073 30.0017L76.868 26.8009Z" fill="#FB7B00"/>
<path d="M64.2687 38.0108C64.2687 38.0108 60.4008 36.3635 60.4626 37.7861C60.5245 39.2087 64.3616 40.1446 64.3616 40.1446L64.2687 38.0108Z" fill="#FFB9B9"/>
<path d="M66.3906 50.0476C66.3906 50.0476 64.5657 54.0286 63.8915 56.9014C63.2173 59.7741 62.1904 63.7276 63.5112 66.5313C64.8321 69.3351 68.5873 77.5755 68.6259 78.4646C68.6646 79.3537 68.3043 80.2566 69.1023 80.2291C69.9003 80.2015 74.243 78.9828 74.4193 78.4425C74.5956 77.9021 72.9377 76.5347 72.9377 76.5347L68.8437 65.1004L73.1152 57.6511L76.1961 68.7642L76.7996 82.6344C76.7996 82.6344 79.7612 81.8196 80.1912 82.5171C80.1912 82.5171 81.5181 80.8685 81.6866 80.1503C81.8552 79.4321 81.06 65.7467 81.06 65.7467C81.06 65.7467 83.7785 50.159 81.5839 50.2348C79.3894 50.3107 70.7935 45.6213 66.3906 50.0476Z" fill="#FB7B00"/>
<path d="M69.0713 79.5178C69.0713 79.5178 67.047 83.5057 66.8552 83.6904C66.6634 83.8752 65.3443 85.7016 66.3418 85.6672C67.3393 85.6327 69.6947 84.6608 71.4283 83.1762C73.162 81.6915 75.4477 79.1193 75.2405 78.9484C75.0333 78.7774 73.6135 78.2922 73.6135 78.2922L69.0713 79.5178Z" fill="#575A89"/>
<path d="M77.16 81.7316C77.16 81.7316 77.0379 83.5168 76.6698 84.2418C76.3018 84.9669 76.3482 86.0339 77.3457 85.9994C78.3432 85.9649 80.9213 85.5196 80.9213 85.5196C80.9213 85.5196 81.0744 84.4458 80.8671 84.2749C80.6599 84.1039 79.7768 82.1755 80.1526 81.6282C80.5284 81.081 77.16 81.7316 77.16 81.7316Z" fill="#575A89"/>
<path d="M78.6357 23.8015C78.6357 23.8015 80.7623 26.7555 81.5912 27.4392C82.4202 28.1229 80.088 29.6283 80.088 29.6283L75.9139 30.1287C75.9139 30.1287 75.9664 26.7432 75.7514 26.3944C75.5364 26.0457 78.6357 23.8015 78.6357 23.8015Z" fill="#FFB9B9"/>
<path d="M75.0075 27.6666C75.0075 27.6666 75.8674 29.0616 76.6654 29.034C77.4634 29.0064 81.5912 27.439 81.7675 26.8987C81.9438 26.3583 83.1347 30.7694 83.1347 30.7694L73.0345 46.6122L70.5708 45.0946L71.7645 35.7927L72.745 30.7723L75.0075 27.6666Z" fill="#FB7B00"/>
<path d="M82.14 41.8454C81.7371 42.5966 81.4855 43.38 81.5204 44.182C81.5219 44.2176 81.5235 44.2531 81.527 44.2886C81.6226 45.9344 82.3028 47.8378 82.5469 49.2221C82.7239 50.215 82.6735 50.9398 82.0216 51.1101C80.441 51.5209 82.252 51.8145 76.137 53.6287C70.022 55.4429 68.9548 53.8769 68.9393 53.5213C68.9239 53.1656 69.8053 50.4638 69.5981 50.2929C69.3909 50.122 66.6983 52.5302 65.8849 52.2022C65.0714 51.8741 65.792 50.0683 65.792 50.0683C65.792 50.0683 67.6246 46.2651 67.5859 45.376C67.5472 44.4869 70.3619 40.2935 70.3619 40.2935L72.2763 29.1858C72.2763 29.1858 73.0124 27.7357 74.0022 27.5234C74.992 27.3111 75.8132 27.8169 75.8132 27.8169L74.1569 31.0798L72.4094 36.8391L72.7018 38.966C72.7018 38.966 74.7339 35.1559 76.0685 33.6851C77.4032 32.2142 80.2488 28.7322 80.2488 28.7322C80.2488 28.7322 80.9131 26.7342 80.4116 26.1371C79.91 25.5383 82.5036 25.4486 83.6094 27.9037C84.1955 29.2048 85.1471 31.1452 85.7432 32.9518C86.2744 34.5522 86.5253 36.0484 85.999 36.9036C85.1947 38.2101 83.1715 39.9274 82.14 41.8454Z" fill="#575A89"/>
<path opacity="0.1" d="M85.9992 36.9036C85.1948 38.2101 83.1716 39.9273 82.1401 41.8454C81.8707 40.9803 81.542 40.0852 81.542 40.0852C81.542 40.0852 80.2815 34.0737 84.0102 32.5201C84.628 32.4669 85.2459 32.6207 85.7433 32.9517C86.2745 34.5522 86.5254 36.0484 85.9992 36.9036Z" fill="black"/>
<path d="M71.1971 36.5247L68.036 37.3463L63.6468 37.498L63.1953 40.8973L70.4084 41.3603C70.4084 41.3603 72.2101 36.8458 71.1971 36.5247Z" fill="#575A89"/>
<path d="M76.3516 47.9543C76.3516 47.9543 72.1226 48.5797 73.0878 49.714C74.053 50.8483 77.7994 49.6558 77.7994 49.6558L76.3516 47.9543Z" fill="#FFB9B9"/>
<path opacity="0.1" d="M81.527 44.2888C81.6226 45.9346 82.3028 47.838 82.5468 49.2223C81.1997 50.3587 79.9186 51.3611 79.4358 51.3778C78.4382 51.4123 76.8345 51.2896 76.2437 51.4881C75.6529 51.6866 75.3064 48.3149 75.3064 48.3149C75.3064 48.3149 75.659 47.2342 77.2318 46.6456C78.2934 46.2474 80.3284 45.1673 81.527 44.2888Z" fill="black"/>
<path d="M83.9634 31.4532C83.9634 31.4532 87.3396 30.9803 87.1572 35.9731C86.9748 40.9659 87.5131 44.1529 86.1552 45.0903C84.7973 46.0277 80.3867 50.2762 79.3891 50.3106C78.3916 50.3451 76.7878 50.2225 76.197 50.421C75.6063 50.6195 75.2598 47.2478 75.2598 47.2478C75.2598 47.2478 75.6124 46.167 77.1852 45.5784C78.758 44.9898 82.4635 42.9027 82.4326 42.1914C82.4016 41.4801 81.4953 39.0182 81.4953 39.0182C81.4953 39.0182 80.2347 33.0067 83.9634 31.4532Z" fill="#575A89"/>
<path d="M75.6585 28.1755C78.0844 28.1755 80.051 26.4227 80.051 24.2605C80.051 22.0983 78.0844 20.3455 75.6585 20.3455C73.2327 20.3455 71.2661 22.0983 71.2661 24.2605C71.2661 26.4227 73.2327 28.1755 75.6585 28.1755Z" fill="#FFB9B9"/>
<path d="M72.7008 18.6491C72.5948 18.7304 72.468 18.7872 72.3315 18.8143C72.2629 18.8251 72.1924 18.8114 72.1351 18.7761C72.0779 18.7408 72.0387 18.6867 72.0261 18.6257C71.9256 18.8115 71.8122 19.0094 71.607 19.1048C71.4018 19.2001 71.0846 19.1201 71.055 18.9156C71.025 19.0709 70.9479 19.2159 70.8321 19.335C70.7048 19.4432 70.4739 19.4705 70.3628 19.3489C70.4526 19.7866 70.3972 20.2367 70.4254 20.681C70.4536 21.1252 70.5865 21.5961 70.9631 21.8883C71.5122 22.3143 72.338 22.2091 73.0604 22.1284C73.1696 22.108 73.283 22.1135 73.3891 22.1444C73.6596 22.2472 73.6473 22.5828 73.6509 22.8448C73.673 23.3045 73.8771 23.7425 74.2271 24.0808C74.5771 24.4191 75.0503 24.6359 75.5626 24.6927C75.8494 24.7321 76.1419 24.6685 76.376 24.5157C76.5811 24.3608 76.6859 24.1082 76.9209 23.9918C77.3032 23.8025 77.7669 24.0786 78.0464 24.3785C78.3259 24.6783 78.6013 25.0471 79.0343 25.102C79.607 25.1746 80.0432 24.6544 80.2572 24.1754C80.5524 23.5041 80.6938 22.7869 80.6732 22.066C80.6525 21.3452 80.4701 20.6354 80.1367 19.9784C78.941 17.6552 74.8563 17.2877 72.7008 18.6491Z" fill="#2F2E41"/>
</g>
<defs>
<linearGradient id="paint0_linear" x1="43.3459" y1="41.3766" x2="63.5131" y2="41.3766" gradientUnits="userSpaceOnUse">
<stop stop-color="#808080" stop-opacity="0.25"/>
<stop offset="0.53514" stop-color="#808080" stop-opacity="0.12"/>
<stop offset="1" stop-color="#808080" stop-opacity="0.1"/>
</linearGradient>
<clipPath id="clip0">
<rect width="108" height="86" fill="white"/>
</clipPath>
</defs>
</svg>
