<svg width="108" height="86" viewBox="0 0 108 86" fill="none" xmlns="http://www.w3.org/2000/svg">
<path opacity="0.1" d="M39.3138 85.406C61.0262 85.406 78.6276 84.7641 78.6276 83.9724C78.6276 83.1807 61.0262 82.5388 39.3138 82.5388C17.6014 82.5388 0 83.1807 0 83.9724C0 84.7641 17.6014 85.406 39.3138 85.406Z" fill="#FB7B00"/>
<path opacity="0.1" d="M28.9784 2.60264C31.483 0.319085 35.4144 -0.146317 38.9929 0.035588C50.233 0.606946 60.3793 6.15902 69.1558 12.439C72.333 14.7125 75.4612 17.1626 77.5235 20.2933C81.7219 26.6665 80.4765 35.4955 74.6387 40.7459C72.6524 42.5322 70.2446 43.9016 67.7727 45.1155C63.3776 47.274 58.6353 49.0067 53.6469 49.4999C50.0896 49.8515 46.4886 49.5656 42.9521 49.0749C33.0715 47.7039 23.3729 44.6723 15.2441 39.4854C11.6789 37.2105 8.3184 34.3822 6.84886 30.702C5.37933 27.0218 6.31981 22.3581 9.9603 20.1798C11.466 19.2788 13.2662 18.8719 15.0287 18.4899C17.623 17.9275 20.2589 17.3731 22.6 16.2297C25.0181 15.0488 27.8814 12.7651 27.4026 10.1512C26.8889 7.34665 26.4767 4.88352 28.9784 2.60264Z" fill="#FB7B00"/>
<path opacity="0.1" d="M97.4856 85.9998C103.293 85.9998 108 85.5736 108 85.048C108 84.5223 103.293 84.0962 97.4856 84.0962C91.6787 84.0962 86.9712 84.5223 86.9712 85.048C86.9712 85.5736 91.6787 85.9998 97.4856 85.9998Z" fill="#FB7B00"/>
<path d="M54.8377 32.3891C54.6665 32.05 53.7615 29.9431 53.7615 29.9431L52.2451 25.923C52.2451 25.923 51.169 24.2277 51.169 23.9129C51.169 23.5981 49.2124 22.3388 49.2124 22.3388C49.2124 22.3388 47.6226 21.8544 47.5004 21.806C47.3781 21.7575 45.4948 21.1201 45.4948 21.1201C45.4948 21.1201 44.7533 20.1224 44.6476 20.383L44.6475 20.3836C44.6437 20.377 44.6397 20.3713 44.6359 20.3646C44.4844 20.0749 44.3884 19.7582 44.3532 19.4317C44.3491 19.4027 44.3457 19.3721 44.3421 19.3418C44.8305 19.0031 45.2309 18.5476 45.5085 18.0148C45.786 17.4821 45.9325 16.8881 45.9351 16.2844C45.9347 16.1254 45.9243 15.9667 45.9038 15.8091C45.9172 15.8005 45.9313 15.793 45.9458 15.7865C45.9763 15.7729 45.9685 15.7619 45.9462 15.7505C45.9538 15.7463 45.9615 15.742 45.9692 15.7386C46.0097 15.7206 45.9827 15.707 45.9435 15.6908L45.9458 15.6896C46.001 15.6651 45.9312 15.6488 45.8752 15.6229C45.8722 15.6061 45.8693 15.5893 45.8661 15.5726C45.8785 15.5407 45.8861 15.5071 45.8886 15.4728C45.8935 15.4754 45.8981 15.4781 45.9033 15.4804C45.917 15.418 45.9166 15.3533 45.9023 15.291C45.8988 15.3037 45.8946 15.3161 45.8896 15.3282C45.8931 15.2718 45.8817 15.2154 45.8567 15.165C45.8317 15.1146 45.7939 15.0719 45.7472 15.0415C45.7444 15.039 45.7413 15.0363 45.7385 15.0338L45.8422 13.9473C47.3716 13.8734 47.64 11.2111 47.2911 11.0632C46.9423 10.9153 47.2911 10.5949 47.2911 9.95395C47.2911 9.31303 46.1374 8.59817 46.1374 8.59817C46.1374 8.59817 45.6544 8.84468 44.9031 7.61215C44.1518 6.37963 41.3881 6.18242 41.2003 6.50288C41.0124 6.82333 39.7782 7.2424 38.1682 7.71076C36.5583 8.17911 36.8535 10.1265 37.1218 10.5456C37.3428 10.892 37.4723 11.2912 37.4974 11.7041C37.4974 11.9507 38.0072 12.986 38.0072 12.986C37.8464 13.3447 38.2556 15.3101 38.3768 15.8686C38.3749 15.8858 38.3729 15.9029 38.3712 15.9202C38.3702 15.9218 38.3688 15.9233 38.3679 15.925C38.3621 15.934 38.3568 15.9434 38.3522 15.9531C38.3262 16.011 38.3176 16.0755 38.3275 16.1384C38.3186 16.2071 38.328 16.277 38.3546 16.3408C38.3638 16.8671 38.4828 17.3852 38.7037 17.8606C38.9245 18.3359 39.242 18.7576 39.6351 19.0972C39.637 19.1308 39.6388 19.1646 39.6406 19.1992C39.6631 19.6555 39.6759 20.195 39.6524 20.7113C39.6512 20.7378 39.6492 20.7636 39.6478 20.7899C39.5591 20.8083 39.4758 20.8477 39.4047 20.9051C39.3336 20.9625 39.2767 21.0361 39.2386 21.1201C39.0869 21.4185 38.2064 21.8786 38.2064 21.8786C38.2064 21.8786 36.6656 21.9513 36.5189 22.2419C36.3721 22.5325 34.1465 23.5012 34.1465 23.5012C34.1465 23.5012 32.9725 24.2035 33.1437 25.0027C33.2331 25.4203 32.982 26.0691 32.7218 26.5936C32.1776 26.3825 31.6109 26.2379 31.0334 26.1629L32.2803 27.3833C32.2542 27.4251 32.2388 27.4487 32.2388 27.4487L31.5295 30.0157C31.5295 30.0157 31.2849 30.9118 31.0403 31.1297C30.7958 31.3477 31.2605 33.3335 31.2605 33.3335C31.2605 33.3335 30.9914 34.7382 30.7713 35.1014C30.5512 35.4647 31.1137 36.3607 31.1137 36.3607L32.2388 38.9762L35.2226 39.7512C35.2226 39.7512 35.4214 39.7942 35.7427 39.8646C35.7326 39.9272 35.7223 39.9894 35.7117 40.0515C35.5679 40.8846 35.3791 41.6508 35.1492 41.8581C34.5867 42.3667 34.6112 44.6431 34.6112 44.6431L34.6356 47.8641C34.6356 47.8641 34.8313 51.8358 34.7334 51.9811C34.6717 52.0728 34.7956 52.2223 35.1226 52.3568C35.1132 52.4165 35.104 52.4772 35.0954 52.539C35.0035 53.1978 34.9624 53.9495 35.1737 54.2817C35.2654 54.4614 35.3157 54.6603 35.3204 54.863C35.3204 55.1778 35.7851 55.8317 35.7851 55.8317C35.7851 55.8317 35.4183 58.5198 36.0297 59.4401C36.6411 60.3603 37.1548 62.0313 36.8613 62.4188C36.8613 62.4188 36.3477 63.5571 36.5922 64.0656C36.8368 64.5742 36.5922 64.8648 36.2743 64.9859C35.9563 65.107 35.9837 66.0999 35.9837 66.0999L36.5678 70.8223C36.5678 70.8223 36.8857 71.791 36.6167 72.1301C36.3477 72.4691 36.3477 74.1643 36.7634 74.7456C37.1792 75.3268 36.1764 76.3924 36.1764 76.3924C36.1764 76.3924 35.565 77.2884 36.5433 77.579C36.5433 77.579 36.739 77.6275 36.3721 78.0149C36.0052 78.4024 35.9319 78.8868 36.1764 79.0563C36.2272 79.0874 36.2802 79.1144 36.3351 79.1369C36.326 79.1943 36.3162 79.2538 36.3046 79.3169C36.2107 79.8225 36.0336 80.4812 35.7117 80.8C35.0879 81.4539 34.5496 82.1878 34.1103 82.9834C33.7747 83.6344 33.628 84.2437 33.9997 84.5295C34.8802 85.2076 36.0052 85.4255 36.6656 85.1591C37.3259 84.8927 38.2553 84.0693 38.2553 84.0693L38.4755 83.1248C38.4755 83.1248 38.3287 82.5436 39.0624 82.3257C39.7962 82.1077 40.481 81.3327 40.481 81.3327V80.0773C40.6586 79.9735 40.8301 79.8589 40.9946 79.7344C40.9946 79.7344 41.337 78.4993 40.9946 78.0876C40.6522 77.6759 40.5299 77.5306 40.9701 77.2642C41.4104 76.9978 41.4701 76.4166 41.1472 75.908C40.8234 75.3994 40.3098 74.6487 40.75 73.5831C41.1903 72.5176 41.3517 69.2482 41.3517 69.2482C41.3517 69.2482 41.1462 67.0202 41.3517 66.5116C41.5571 66.003 41.1169 64.9859 41.1169 64.9859C41.1169 64.9859 41.2636 63.7266 41.5327 63.1454C41.8017 62.5641 42.0218 59.4885 42.0218 59.4885C42.0218 59.4885 42.511 58.1808 42.511 57.3332C42.511 56.4855 41.7528 54.4513 42.8778 53.9185C42.8778 53.9185 43.367 54.3544 43.1713 56.0981C43.1713 56.0981 43.7339 58.1323 43.7339 58.762C43.7339 59.3916 44.1496 61.6681 44.1496 61.6681C44.1496 61.6681 44.1986 62.3946 44.3698 62.661C44.541 62.9274 44.3698 63.6539 44.3698 63.6539C44.3698 63.6539 45.0057 64.2594 44.8345 64.6469C44.6633 65.0343 44.8638 65.9081 44.8638 65.9081L44.7122 71.3309C44.7122 71.3309 44.2719 73.6558 45.2992 75.0604C45.2992 75.0604 44.9323 77.1189 44.7122 77.2642C44.4921 77.4095 45.5193 78.6688 45.5193 78.6688C45.5193 78.6688 45.2346 79.4846 45.8128 79.5246V80.8726C46.0135 81.2355 46.2889 81.5495 46.6199 81.7929C47.1579 82.1804 46.9378 83.5123 46.9378 83.5123C46.9378 83.5123 47.6226 85.2076 49.4325 84.8443C51.2424 84.481 51.487 84.3115 51.3891 83.7061C51.3539 83.4852 51.2756 83.091 51.1631 82.6434C50.9684 81.8656 50.6701 80.9269 50.313 80.4638C49.7505 79.7344 49.2858 78.2087 49.2858 78.2087C49.2858 78.2087 49.0656 77.7001 49.2858 77.5306C49.5059 77.3611 49.4081 77.0463 49.4081 77.0463C49.4081 77.0463 49.6223 76.4166 49.4296 76.0291C49.2368 75.6416 49.7994 74.8425 49.7994 74.8425L49.6282 71.113L49.7994 65.6882C49.7994 65.6882 49.0412 64.7922 49.3591 64.2594C49.6771 63.7266 48.9923 62.9759 48.9923 62.9759C48.9923 62.9759 48.9189 62.9516 49.1146 62.3462C49.2316 61.9894 49.2142 61.6007 49.0656 61.2564C49.0656 61.2564 48.6499 59.7549 49.3836 58.6167C49.3836 58.6167 49.7015 57.1152 49.7994 56.3403C49.8669 55.8017 50.2895 53.7897 50.5409 52.6127C50.5552 52.5462 50.5688 52.4825 50.5818 52.4216C50.944 52.4419 51.2179 52.4654 51.2179 52.4654C51.2179 52.4654 50.6554 48.4695 51.2179 47.6461C51.7804 46.8228 50.7777 40.5262 50.7777 40.5262C50.7777 40.5262 50.538 39.4257 50.3903 38.303C50.3818 38.239 50.3742 38.1751 50.3664 38.1112C50.8205 38.0741 51.2763 38.0637 51.7315 38.0802C52.9055 38.1529 54.055 37.6927 54.0795 37.2326C54.1039 36.7725 54.7398 34.9561 54.8377 34.5444C54.9355 34.1328 55.0089 32.7281 54.8377 32.3891Z" fill="url(#paint0_linear)"/>
<path d="M40.5666 79.1076V81.35C40.5666 81.35 39.9067 82.1216 39.1997 82.3386C38.4927 82.5556 38.6341 83.1343 38.6341 83.1343L38.422 84.0747C38.422 84.0747 37.5265 84.8945 36.8902 85.1597C36.2539 85.4249 35.1698 85.2079 34.3214 84.5328C33.9632 84.2483 34.1046 83.6416 34.4279 82.9935C34.8492 82.2042 35.3678 81.4736 35.9711 80.8196C36.2812 80.5022 36.4518 79.8464 36.5423 79.3429C36.6092 78.9658 36.6309 78.6736 36.6309 78.6736L40.5666 79.1076Z" fill="#4C495A"/>
<path opacity="0.1" d="M40.5666 80.781V81.35C40.5666 81.35 39.9067 82.1216 39.1997 82.3386C38.4927 82.5556 38.6341 83.1343 38.6341 83.1343L38.422 84.0747C38.422 84.0747 37.5265 84.8945 36.8902 85.1598C36.2539 85.425 35.1698 85.208 34.3214 84.5328C33.9632 84.2483 34.1046 83.6417 34.4279 82.9935C34.4128 83.6745 34.6099 84.4393 35.5704 84.4123C36.6072 84.3786 37.6063 84.0069 38.422 83.3514C38.422 83.3514 38.3984 81.76 39.4825 81.3983C39.8787 81.2644 40.2466 81.055 40.5666 80.781V80.781Z" fill="black"/>
<path d="M49.192 84.8462C47.448 85.2079 46.7882 83.52 46.7882 83.52C46.7882 83.52 47.0003 82.1939 46.4818 81.8081C46.1612 81.5634 45.8959 81.2509 45.7041 80.8918V78.6735L47.8251 77.1304L48.9733 78.1701L49.0506 78.2395C49.0506 78.2395 49.4983 79.7586 50.0404 80.4848C50.3844 80.9459 50.6719 81.8804 50.8595 82.6549C50.968 83.1005 51.0434 83.493 51.0773 83.7129C51.1716 84.3157 50.9359 84.4845 49.192 84.8462Z" fill="#4C495A"/>
<path opacity="0.1" d="M49.192 84.8462C47.448 85.2079 46.7882 83.52 46.7882 83.52C46.7882 83.52 47.0003 82.1939 46.4818 81.8081C46.1612 81.5634 45.8959 81.2509 45.7041 80.8918V80.0325C46.0406 80.3961 46.6751 81.1002 46.8117 81.3982C47.0003 81.8081 47.0238 83.303 47.8958 83.5683C48.7678 83.8335 50.4646 84.0746 50.606 83.3995C50.6648 83.1429 50.7497 82.8933 50.8595 82.6549C50.968 83.1005 51.0434 83.493 51.0773 83.7129C51.1716 84.3157 50.9359 84.4845 49.192 84.8462Z" fill="black"/>
<path opacity="0.1" d="M36.6311 78.6736L40.5667 79.1076V80.2929C40.1227 80.562 39.4864 80.8475 39.1291 80.5543C38.6013 80.1222 37.0317 79.5734 36.5425 79.3429C36.6094 78.9658 36.6311 78.6736 36.6311 78.6736Z" fill="black"/>
<path opacity="0.1" d="M49.0506 78.4324C48.5085 78.2395 47.5423 79.0834 46.2697 79.6139C46.0928 79.6992 45.8996 79.7433 45.7041 79.7431V78.6735L47.8251 77.1304L48.9733 78.1701C48.991 78.2598 49.0168 78.3476 49.0506 78.4324Z" fill="black"/>
<path d="M50.441 51.8851C50.441 51.8851 50.3665 52.24 50.26 52.755C50.0178 53.9269 49.6105 55.9301 49.5455 56.4663C49.4512 57.2379 49.1449 58.7329 49.1449 58.7329C48.4379 59.8661 48.8385 61.3611 48.8385 61.3611C48.9818 61.7051 48.9985 62.0905 48.8856 62.4461C48.6971 63.0489 48.7678 63.073 48.7678 63.073C48.7678 63.073 49.4276 63.8205 49.1213 64.351C48.8149 64.8814 49.5455 65.7736 49.5455 65.7736L49.3805 71.1746L49.5455 74.8879C49.5455 74.8879 49.0035 75.6836 49.1892 76.0694C49.3749 76.4552 49.1684 77.0821 49.1684 77.0821C49.1684 77.0821 49.2627 77.3955 49.0506 77.5643C48.8385 77.7331 49.0506 78.2395 49.0506 78.2395C48.5086 78.0466 47.5423 78.8905 46.2697 79.4209C44.9971 79.9514 45.4213 78.6976 45.4213 78.6976C45.4213 78.6976 44.4315 77.4438 44.6436 77.2991C44.8557 77.1544 45.2092 75.1049 45.2092 75.1049C44.2194 73.7064 44.6436 71.3917 44.6436 71.3917L44.7897 65.9925C44.7897 65.9925 44.5965 65.1225 44.7615 64.7368C44.9264 64.351 44.3137 63.7482 44.3137 63.7482C44.3137 63.7482 44.4787 63.0248 44.3137 62.7596C44.1487 62.4943 44.1016 61.771 44.1016 61.771C44.1016 61.771 43.701 59.5045 43.701 58.8775C43.701 58.2506 43.1589 56.2252 43.1589 56.2252C43.3475 54.4892 42.8761 54.0551 42.8761 54.0551C41.7921 54.5856 42.5226 56.611 42.5226 57.4549C42.5226 58.2989 42.0513 59.6009 42.0513 59.6009C42.0513 59.6009 41.8392 62.6631 41.58 63.2418C41.3207 63.8205 41.1793 65.0743 41.1793 65.0743C41.1793 65.0743 41.6035 66.087 41.4056 66.5934C41.2076 67.0997 41.4056 69.318 41.4056 69.318C41.4056 69.318 41.25 72.5732 40.8258 73.6341C40.4016 74.695 40.8965 75.4425 41.2086 75.9488C41.5196 76.4552 41.4621 77.0339 41.0379 77.2991C40.6137 77.5643 40.7316 77.709 41.0615 78.1189C41.3914 78.5288 41.0615 79.7585 41.0615 79.7585C41.0615 79.7585 39.7182 80.8436 39.129 80.3613C38.5399 79.8791 36.6545 79.2522 36.4189 79.0834C36.1832 78.9146 36.2539 78.4324 36.6074 78.0466C36.9609 77.6608 36.7724 77.6126 36.7724 77.6126C35.8297 77.3232 36.4189 76.4311 36.4189 76.4311C36.4189 76.4311 37.3851 75.3701 36.9845 74.7914C36.5838 74.2128 36.5838 72.5249 36.8431 72.1874C37.1023 71.8498 36.7959 70.8853 36.7959 70.8853L36.2332 66.1835C36.2332 66.1835 36.2068 65.1949 36.5131 65.0743C36.8195 64.9538 37.0552 64.6644 36.8195 64.1581C36.5838 63.6517 37.0787 62.5184 37.0787 62.5184C37.3615 62.1327 36.8666 60.4689 36.2775 59.5527C35.6883 58.6364 36.0418 55.96 36.0418 55.96C36.0418 55.96 35.594 55.309 35.594 54.9955C35.5896 54.7942 35.5413 54.5965 35.4526 54.4168C35.249 54.086 35.2886 53.3376 35.3772 52.6817C35.463 52.0471 35.594 51.4993 35.594 51.4993L50.441 51.8851Z" fill="#5F5D7E"/>
<path d="M45.8221 24.5663L41.1795 25.6755C41.1795 25.6755 38.8935 23.6983 39.4591 22.6374C39.6533 22.2728 39.7391 21.6507 39.7683 20.9929C39.7909 20.4789 39.7787 19.9417 39.757 19.4874C39.724 18.8306 39.6712 18.3455 39.6712 18.3455C39.6712 18.3455 44.4317 15.5967 44.2667 18.3455C44.2332 18.8032 44.2436 19.2632 44.2978 19.7189C44.3315 20.0431 44.4238 20.3581 44.5702 20.6477C44.8247 21.1116 45.1387 21.1183 45.1387 21.1183L45.8221 24.5663Z" fill="#FDC2CC"/>
<path opacity="0.1" d="M44.2978 19.7189C43.6268 20.2113 42.8125 20.4565 41.9878 20.4145C41.1631 20.3724 40.3767 20.0456 39.7569 19.4874C39.7239 18.8306 39.6711 18.3455 39.6711 18.3455C39.6711 18.3455 44.4316 15.5967 44.2666 18.3455C44.2331 18.8032 44.2435 19.2632 44.2978 19.7189V19.7189Z" fill="black"/>
<path d="M42.1692 20.3226C44.1866 20.3226 45.822 18.6493 45.822 16.5853C45.822 14.5212 44.1866 12.8479 42.1692 12.8479C40.1518 12.8479 38.5164 14.5212 38.5164 16.5853C38.5164 18.6493 40.1518 20.3226 42.1692 20.3226Z" fill="#FDC2CC"/>
<path opacity="0.1" d="M45.8221 24.5661L41.1795 25.6753C41.1795 25.6753 38.8935 23.6981 39.4591 22.6372C39.6533 22.2726 39.7391 21.6505 39.7683 20.9927C39.8708 21.5647 40.1709 22.0799 40.6139 22.4443C41.6744 23.1676 41.5094 24.0598 41.5094 24.0598L43.4183 23.9875C43.3005 23.1918 44.0075 22.7577 44.2431 22.6613C44.4788 22.5648 44.361 22.1308 44.361 22.1308L44.5702 20.6475C44.8247 21.1114 45.1387 21.1181 45.1387 21.1181L45.8221 24.5661Z" fill="black"/>
<path opacity="0.1" d="M50.441 51.8851C50.441 51.8851 50.3665 52.24 50.26 52.755C49.7472 52.7271 49.0694 52.7068 48.7678 52.7772C48.2493 52.8978 46.1754 52.946 46.1754 52.946L41.0379 53.1321V52.9701C40.4469 52.975 39.8568 53.0152 39.2704 53.0907C38.3984 53.2112 37.0316 53.0424 36.1596 52.8978C35.8912 52.8584 35.6285 52.7859 35.3772 52.6817C35.463 52.0471 35.594 51.4993 35.594 51.4993L50.441 51.8851Z" fill="black"/>
<path d="M50.0405 36.5741C49.966 37.0245 50.0207 37.771 50.115 38.5079C50.2573 39.6257 50.4883 40.7214 50.4883 40.7214C50.4883 40.7214 51.4545 46.9905 50.9125 47.8103C50.3704 48.6301 50.9125 52.6086 50.9125 52.6086C50.9125 52.6086 49.2864 52.4639 48.7679 52.5845C48.2494 52.705 46.1756 52.7533 46.1756 52.7533L41.038 52.9394V52.7774C40.4471 52.7823 39.8569 52.8225 39.2705 52.8979C38.3986 53.0185 37.0317 52.8497 36.1598 52.705C35.2878 52.5604 34.9343 52.271 35.0286 52.1263C35.1228 51.9817 34.9343 48.0273 34.9343 48.0273L34.9107 44.8204C34.9107 44.8204 34.8872 42.5539 35.4292 42.0475C35.6507 41.8411 35.8326 41.0782 35.9712 40.2488C36.1701 39.048 36.2776 37.7074 36.2776 37.7074L32.6955 27.8938L32.6248 27.7009C32.6248 27.7009 33.6617 26.0613 33.4967 25.2656C33.3318 24.4699 34.463 23.7707 34.463 23.7707C34.463 23.7707 36.6075 22.8062 36.7489 22.5168C36.8903 22.2275 38.375 22.1552 38.375 22.1552C38.375 22.1552 39.2234 21.697 39.3695 21.4C39.4051 21.317 39.4595 21.2439 39.5282 21.1867C39.5968 21.1295 39.6779 21.0899 39.7645 21.0711C39.8644 21.6501 40.1661 22.1724 40.6138 22.541C41.6743 23.2643 41.5094 24.1565 41.5094 24.1565L43.4183 24.0841C43.3004 23.2884 44.0074 22.8544 44.2431 22.758C44.4788 22.6615 44.3609 22.2275 44.3609 22.2275L44.5815 20.666C44.6833 20.4066 45.3979 21.4 45.3979 21.4C45.3979 21.4 47.2125 22.0346 47.3303 22.0828C47.4482 22.1311 48.98 22.6133 48.98 22.6133C48.98 22.6133 50.8653 23.8671 50.8653 24.1806C50.8653 24.494 51.9022 26.1819 51.9022 26.1819C51.9022 26.1819 51.89 26.2494 51.8674 26.3728C51.6279 27.7019 50.213 35.5373 50.0405 36.5741Z" fill="#FB7B00"/>
<path d="M42.4991 32.668C42.4991 32.668 38.422 31.5588 38.0214 31.2936C37.6208 31.0284 35.2641 32.5715 38.1392 34.6693C38.1392 34.6693 41.655 35.4168 42.5955 34.6693C43.536 33.9218 42.4991 32.668 42.4991 32.668Z" fill="#FDC2CC"/>
<path opacity="0.1" d="M51.313 26.0613L51.8079 26.0854L53.269 30.088C53.269 30.088 54.141 32.1857 54.3059 32.5233C54.4709 32.8609 54.4002 34.2593 54.3059 34.6693C54.2117 35.0792 53.5989 36.8876 53.5754 37.3457C53.5518 37.8038 52.4442 38.2619 51.313 38.1896C50.1818 38.1173 47.5423 38.4789 47.5423 38.4789C47.5423 38.4789 44.7234 38.1775 42.9939 39.0817C42.9939 39.0817 41.8863 36.7429 42.0041 32.3786C42.0041 32.3786 43.9602 32.2581 44.4551 32.451C44.95 32.6438 47.3538 33.1984 47.6601 32.9091C47.9665 32.6197 49.3569 33.4395 49.3569 33.4395C49.4277 33.2805 49.4643 33.1079 49.4643 32.9332C49.4643 32.7585 49.4277 32.5858 49.3569 32.4268C49.1213 31.8482 48.7206 30.0398 49.2391 29.4611C49.7576 28.8824 51.313 26.0613 51.313 26.0613Z" fill="black"/>
<path opacity="0.1" d="M50.115 38.5078C48.9452 38.5889 47.6368 38.7683 47.6368 38.7683C47.6368 38.7683 44.8182 38.4664 43.0884 39.3711C43.0884 39.3711 41.9808 37.0322 42.0986 32.6679C42.0986 32.6679 44.0546 32.5474 44.5495 32.7403C45.0444 32.9332 47.4482 33.4877 47.7546 33.1984C48.061 32.909 49.4514 33.7289 49.4514 33.7289C49.5221 33.5699 49.5587 33.3972 49.5587 33.2225C49.5587 33.0478 49.5221 32.8751 49.4514 32.7161C49.2157 32.1375 48.8151 30.3291 49.3336 29.7504C49.852 29.1717 51.4074 26.3506 51.4074 26.3506L51.8674 26.3728C51.628 27.7018 50.2131 35.5372 50.0406 36.5741C49.9661 37.0245 50.0208 37.771 50.115 38.5078Z" fill="black"/>
<path d="M51.4074 26.1577L51.9023 26.1818L53.3635 30.1844C53.3635 30.1844 54.2354 32.2822 54.4004 32.6197C54.5654 32.9573 54.4947 34.3558 54.4004 34.7657C54.3061 35.1756 53.6934 36.984 53.6698 37.4421C53.6463 37.9002 52.5386 38.3584 51.4074 38.286C50.2762 38.2137 47.6368 38.5754 47.6368 38.5754C47.6368 38.5754 44.8179 38.2739 43.0884 39.1782C43.0884 39.1782 41.9808 36.8393 42.0986 32.4751C42.0986 32.4751 44.0547 32.3545 44.5495 32.5474C45.0444 32.7403 47.4482 33.2949 47.7546 33.0055C48.061 32.7162 49.4514 33.536 49.4514 33.536C49.5222 33.377 49.5588 33.2043 49.5588 33.0296C49.5588 32.8549 49.5222 32.6823 49.4514 32.5233C49.2157 31.9446 48.8151 30.1362 49.3336 29.5575C49.852 28.9788 51.4074 26.1577 51.4074 26.1577Z" fill="#FB7B00"/>
<path d="M46.4283 35.0144L47.0164 35.387L50.2933 29.9722L49.7053 29.5996L46.4283 35.0144Z" fill="#DFE6F5"/>
<path d="M51.9736 29.2388C52.5527 28.2819 52.4904 27.1692 51.8344 26.7536C51.1784 26.338 50.1771 26.7769 49.5979 27.7338C49.0188 28.6908 49.0811 29.8035 49.7372 30.2191C50.3932 30.6347 51.3945 30.1958 51.9736 29.2388Z" fill="#DFE6F5"/>
<path opacity="0.1" d="M51.6384 29.0262C52.0541 28.3393 52.0093 27.5407 51.5384 27.2423C51.0675 26.944 50.3488 27.259 49.9331 27.9459C49.5174 28.6329 49.5622 29.4315 50.033 29.7298C50.5039 30.0282 51.2227 29.7131 51.6384 29.0262Z" fill="black"/>
<path d="M44.7535 37.7818L45.3416 38.1543L47.3805 34.7851L46.7925 34.4126L44.7535 37.7818Z" fill="#53526B"/>
<path d="M41.2973 38.0208L42.7349 37.6109C42.7349 37.6109 49.8284 37.8038 47.4482 34.8139C47.4482 34.8139 46.1992 33.5842 43.5833 34.5728C40.9674 35.5614 40.2368 35.6819 40.2368 35.6819L41.2973 38.0208Z" fill="#FDC2CC"/>
<path opacity="0.1" d="M40.2369 25.4102C40.3931 25.4102 40.5197 25.2807 40.5197 25.1209C40.5197 24.9611 40.3931 24.8315 40.2369 24.8315C40.0807 24.8315 39.9541 24.9611 39.9541 25.1209C39.9541 25.2807 40.0807 25.4102 40.2369 25.4102Z" fill="black"/>
<path opacity="0.1" d="M45.0914 25.2415C45.2476 25.2415 45.3742 25.112 45.3742 24.9522C45.3742 24.7924 45.2476 24.6628 45.0914 24.6628C44.9352 24.6628 44.8086 24.7924 44.8086 24.9522C44.8086 25.112 44.9352 25.2415 45.0914 25.2415Z" fill="black"/>
<path d="M40.2369 25.3138C40.3931 25.3138 40.5197 25.1843 40.5197 25.0245C40.5197 24.8647 40.3931 24.7351 40.2369 24.7351C40.0807 24.7351 39.9541 24.8647 39.9541 25.0245C39.9541 25.1843 40.0807 25.3138 40.2369 25.3138Z" fill="white"/>
<path opacity="0.1" d="M40.6373 29.4129C40.7935 29.4129 40.9201 29.2834 40.9201 29.1236C40.9201 28.9638 40.7935 28.8342 40.6373 28.8342C40.4811 28.8342 40.3545 28.9638 40.3545 29.1236C40.3545 29.2834 40.4811 29.4129 40.6373 29.4129Z" fill="black"/>
<path opacity="0.1" d="M45.2328 29.1236C45.3889 29.1236 45.5156 28.9941 45.5156 28.8343C45.5156 28.6745 45.3889 28.5449 45.2328 28.5449C45.0766 28.5449 44.95 28.6745 44.95 28.8343C44.95 28.9941 45.0766 29.1236 45.2328 29.1236Z" fill="black"/>
<path d="M40.6373 29.3162C40.7935 29.3162 40.9201 29.1867 40.9201 29.0269C40.9201 28.8671 40.7935 28.7375 40.6373 28.7375C40.4811 28.7375 40.3545 28.8671 40.3545 29.0269C40.3545 29.1867 40.4811 29.3162 40.6373 29.3162Z" fill="white"/>
<path opacity="0.1" d="M45.1151 43.086C45.2713 43.086 45.3979 42.9565 45.3979 42.7967C45.3979 42.6369 45.2713 42.5073 45.1151 42.5073C44.9589 42.5073 44.8323 42.6369 44.8323 42.7967C44.8323 42.9565 44.9589 43.086 45.1151 43.086Z" fill="black"/>
<path opacity="0.1" d="M41.3931 43.086C41.5493 43.086 41.6759 42.9565 41.6759 42.7967C41.6759 42.6369 41.5493 42.5073 41.3931 42.5073C41.237 42.5073 41.1104 42.6369 41.1104 42.7967C41.1104 42.9565 41.237 43.086 41.3931 43.086Z" fill="black"/>
<path d="M45.1151 42.9896C45.2713 42.9896 45.3979 42.86 45.3979 42.7002C45.3979 42.5404 45.2713 42.4109 45.1151 42.4109C44.9589 42.4109 44.8323 42.5404 44.8323 42.7002C44.8323 42.86 44.9589 42.9896 45.1151 42.9896Z" fill="white"/>
<path opacity="0.1" d="M41.6761 47.9307C41.8323 47.9307 41.9589 47.8012 41.9589 47.6414C41.9589 47.4816 41.8323 47.3521 41.6761 47.3521C41.5199 47.3521 41.3933 47.4816 41.3933 47.6414C41.3933 47.8012 41.5199 47.9307 41.6761 47.9307Z" fill="black"/>
<path opacity="0.1" d="M45.2328 47.6414C45.3889 47.6414 45.5156 47.5119 45.5156 47.3521C45.5156 47.1923 45.3889 47.0627 45.2328 47.0627C45.0766 47.0627 44.95 47.1923 44.95 47.3521C44.95 47.5119 45.0766 47.6414 45.2328 47.6414Z" fill="black"/>
<path d="M41.6761 47.8343C41.8323 47.8343 41.9589 47.7048 41.9589 47.545C41.9589 47.3852 41.8323 47.2556 41.6761 47.2556C41.5199 47.2556 41.3933 47.3852 41.3933 47.545C41.3933 47.7048 41.5199 47.8343 41.6761 47.8343Z" fill="white"/>
<path d="M41.3931 42.9896C41.5493 42.9896 41.6759 42.86 41.6759 42.7002C41.6759 42.5404 41.5493 42.4109 41.3931 42.4109C41.237 42.4109 41.1104 42.5404 41.1104 42.7002C41.1104 42.86 41.237 42.9896 41.3931 42.9896Z" fill="white"/>
<path d="M45.2328 47.545C45.3889 47.545 45.5156 47.4155 45.5156 47.2557C45.5156 47.0959 45.3889 46.9663 45.2328 46.9663C45.0766 46.9663 44.95 47.0959 44.95 47.2557C44.95 47.4155 45.0766 47.545 45.2328 47.545Z" fill="white"/>
<path d="M45.0914 25.1451C45.2476 25.1451 45.3742 25.0156 45.3742 24.8558C45.3742 24.696 45.2476 24.5664 45.0914 24.5664C44.9352 24.5664 44.8086 24.696 44.8086 24.8558C44.8086 25.0156 44.9352 25.1451 45.0914 25.1451Z" fill="white"/>
<path d="M45.2328 29.0269C45.3889 29.0269 45.5156 28.8974 45.5156 28.7376C45.5156 28.5778 45.3889 28.4482 45.2328 28.4482C45.0766 28.4482 44.95 28.5778 44.95 28.7376C44.95 28.8974 45.0766 29.0269 45.2328 29.0269Z" fill="white"/>
<path opacity="0.1" d="M45.657 38.8889C45.657 38.8889 45.7041 45.4956 45.8455 46.6771C45.8455 46.6771 45.8969 39.2004 45.657 38.8889Z" fill="black"/>
<path opacity="0.1" d="M46.8588 41.9509C46.7617 41.9509 48.7913 49.6909 48.8856 50.2455C48.9798 50.8 47.4244 41.9509 46.8588 41.9509Z" fill="black"/>
<path opacity="0.1" d="M48.4614 40.6973C48.4614 40.7696 49.5926 44.8928 50.1582 45.1098C50.7238 45.3268 48.4614 40.6973 48.4614 40.6973Z" fill="black"/>
<path opacity="0.1" d="M52.9156 32.668C52.9156 32.668 50.5118 32.7776 50.4411 33.1327C50.3704 33.4878 52.9156 32.668 52.9156 32.668Z" fill="black"/>
<path opacity="0.1" d="M48.6735 64.1099C48.6735 64.1099 46.9532 64.8573 47.2124 64.9055C47.4716 64.9538 48.6735 64.1099 48.6735 64.1099Z" fill="black"/>
<path opacity="0.1" d="M45.115 63.0008C45.048 62.8466 46.2697 63.6277 46.2697 63.7242C46.2697 63.8206 45.2092 63.2178 45.115 63.0008Z" fill="black"/>
<path opacity="0.1" d="M46.7175 65.5325C46.7175 65.5325 48.0608 65.4632 48.1551 65.9922C48.2494 66.5211 46.7175 65.5325 46.7175 65.5325Z" fill="black"/>
<path opacity="0.1" d="M37.0552 65.5296C37.0552 65.5296 38.5163 65.2372 38.6341 65.5296C38.752 65.822 37.0552 65.5296 37.0552 65.5296Z" fill="black"/>
<path opacity="0.1" d="M37.5972 74.6226C37.5972 74.6226 37.6931 75.8523 37.3388 76.1416C36.9845 76.431 37.5972 74.6226 37.5972 74.6226Z" fill="black"/>
<path opacity="0.1" d="M37.4189 77.2269C37.8802 77.2751 40.3076 76.8411 40.284 77.2269C40.2604 77.6127 37.4189 77.2269 37.4189 77.2269Z" fill="black"/>
<path opacity="0.1" d="M48.5559 75.732C48.5559 75.732 47.7281 75.6018 47.9299 76.1733L48.5559 75.732Z" fill="black"/>
<path opacity="0.1" d="M33.1668 27.6045H32.7191L32.0356 30.1603C32.0356 30.1603 31.8 31.0525 31.5643 31.2695C31.3286 31.4865 31.7764 33.4637 31.7764 33.4637C31.7764 33.4637 31.5172 34.8622 31.3051 35.2239C31.093 35.5855 31.635 36.4777 31.635 36.4777L32.7191 39.0818L35.5942 39.8534C35.5942 39.8534 40.661 40.9866 40.8967 41.1554C41.1324 41.3242 41.3445 41.0831 41.5094 39.5158C41.6744 37.9485 42.1222 34.9104 42.4757 34.7657C42.4757 34.7657 39.6477 35.0792 39.412 35.031C39.1763 34.9827 38.0451 35.0551 38.0451 35.0551C38.0451 35.0551 36.5604 34.9586 36.3248 35.1033C36.0891 35.248 36.6311 34.403 36.6311 34.403C36.7304 34.0161 36.7304 33.6095 36.6311 33.2226C36.4662 32.5715 36.3719 25.1933 33.1668 27.6045Z" fill="black"/>
<path opacity="0.1" d="M42.3812 35.055C42.0277 35.1997 41.5799 38.2378 41.415 39.8051C41.25 41.3724 41.0379 41.6135 40.8022 41.4447C40.6109 41.3078 37.2333 40.5342 35.9711 40.2488C36.17 39.048 36.2774 37.7074 36.2774 37.7074L32.6953 27.8938H33.0724C36.2774 25.4826 36.3717 32.8609 36.5367 33.5119C36.6359 33.8988 36.6359 34.3054 36.5367 34.6924C36.5367 34.6924 35.9946 35.5373 36.2303 35.3926C36.466 35.2479 37.9507 35.3444 37.9507 35.3444C37.9507 35.3444 39.0819 35.2721 39.3175 35.3203C39.5532 35.3685 42.3812 35.055 42.3812 35.055Z" fill="black"/>
<path d="M33.0726 27.7009H32.6248L31.9414 30.2568C31.9414 30.2568 31.7057 31.1489 31.4701 31.3659C31.2344 31.5829 31.6822 33.5601 31.6822 33.5601C31.6822 33.5601 31.4229 34.9586 31.2108 35.3203C30.9987 35.682 31.5408 36.5741 31.5408 36.5741L32.6248 39.1782L35.5 39.9498C35.5 39.9498 40.5668 41.0831 40.8025 41.2519C41.0381 41.4206 41.2502 41.1795 41.4152 39.6122C41.5802 38.045 42.0279 35.0069 42.3814 34.8622C42.3814 34.8622 39.5534 35.1756 39.3178 35.1274C39.0821 35.0792 37.9509 35.1515 37.9509 35.1515C37.9509 35.1515 36.4662 35.0551 36.2305 35.1998C35.9949 35.3444 36.5369 34.4994 36.5369 34.4994C36.6361 34.1125 36.6361 33.7059 36.5369 33.319C36.3719 32.668 36.2777 25.2897 33.0726 27.7009Z" fill="#FB7B00"/>
<path opacity="0.1" d="M34.6042 36.4294C34.6042 36.4294 33.3081 38.9371 33.0724 38.6477C32.8367 38.3584 34.6042 36.4294 34.6042 36.4294Z" fill="black"/>
<path opacity="0.1" d="M33.261 35.0015C33.261 35.0015 32.0591 36.0195 32.6247 36.2848C33.1903 36.55 33.261 35.0015 33.261 35.0015Z" fill="black"/>
<path opacity="0.1" d="M34.3923 33.7529C34.4866 33.777 36.1363 34.1123 36.1598 34.2581C36.1834 34.404 34.3923 33.7529 34.3923 33.7529Z" fill="black"/>
<path opacity="0.1" d="M45.8323 16.0894C45.7811 16.1078 45.7374 16.1433 45.7082 16.1902C45.6789 16.237 45.6659 16.2926 45.6711 16.3479C45.575 16.4347 45.4402 16.3325 45.3619 16.2215C45.2828 16.1116 45.1932 15.9756 45.0735 15.991C45.0166 16.0096 44.9614 16.0331 44.9085 16.0614C44.72 16.1232 44.5607 15.8965 44.4551 15.6978C44.2713 15.3496 44.0875 15.0018 43.9036 14.6543C43.5351 14.8732 43.0996 14.6436 42.7338 14.417C42.368 14.1903 41.9325 13.9598 41.563 14.1788C41.021 14.499 41.0012 15.5667 40.4394 15.83C40.2584 15.9148 40.0482 15.8965 39.8804 16.0132C39.7144 16.1289 39.6249 16.3517 39.5504 16.5649C39.5229 16.6862 39.4581 16.7954 39.3657 16.8764C39.3069 16.9078 39.2415 16.9241 39.1752 16.9237C39.0087 16.9526 38.8374 16.928 38.6851 16.8533C38.6052 16.8019 38.5449 16.7242 38.514 16.633C38.4831 16.5418 38.4836 16.4426 38.5154 16.3517C38.5198 16.3421 38.5249 16.3328 38.5305 16.3238C38.5908 16.2491 38.6451 16.1694 38.6926 16.0855C38.7492 15.9322 38.6681 15.7538 38.686 15.5879C38.7152 15.3043 39.0084 15.1548 39.0584 14.8761C39.0791 14.7671 39.0574 14.6504 39.0772 14.5404C39.08 14.526 39.0838 14.5119 39.0885 14.498L38.916 14.6195C39.1093 14.389 39.2064 14.0688 39.3478 13.7891C39.5048 13.4829 39.721 13.2124 39.9831 12.9941C40.2453 12.7758 40.548 12.6141 40.873 12.5189C41.4876 12.3357 42.1371 12.3858 42.7574 12.5411C43.3472 12.6914 43.9122 12.9296 44.4344 13.248C44.6209 13.3504 44.7866 13.4882 44.9227 13.6541C45.0367 13.8261 45.1336 14.0093 45.2121 14.2009C45.3949 14.5887 45.8946 14.9475 45.4968 15.0015C45.1659 15.0468 45.4675 15.2841 45.641 15.4442C45.6801 15.4755 45.7139 15.5134 45.7409 15.556C45.7697 15.617 45.7829 15.6845 45.7793 15.7522C45.7756 15.8198 45.7553 15.8854 45.7202 15.9428C45.6532 16.0296 45.9247 16.047 45.8323 16.0894Z" fill="black"/>
<path d="M45.8323 15.9932C45.7811 16.0117 45.7374 16.0471 45.7082 16.094C45.6789 16.1409 45.6659 16.1964 45.6712 16.2517C45.575 16.3385 45.4402 16.2363 45.362 16.1253C45.2828 16.0154 45.1932 15.8794 45.0735 15.8948C45.0166 15.9134 44.9614 15.937 44.9085 15.9652C44.72 16.027 44.5607 15.8003 44.4551 15.6016C44.2713 15.2535 44.0875 14.9056 43.9037 14.5581C43.5351 14.777 43.0996 14.5475 42.7338 14.3208C42.3681 14.0941 41.9325 13.8636 41.563 14.0826C41.021 14.4028 41.0012 15.4705 40.4394 15.7338C40.2584 15.8186 40.0482 15.8003 39.8804 15.917C39.7144 16.0328 39.6249 16.2556 39.5504 16.4687C39.5229 16.59 39.4581 16.6992 39.3657 16.7802C39.3069 16.8117 39.2415 16.8279 39.1752 16.8275C39.0087 16.8565 38.8374 16.8319 38.6851 16.7571C38.6052 16.7057 38.5449 16.628 38.514 16.5369C38.4831 16.4457 38.4836 16.3464 38.5154 16.2555C38.5198 16.2459 38.5249 16.2366 38.5305 16.2276C38.5908 16.1529 38.6451 16.0732 38.6926 15.9894C38.7492 15.836 38.6681 15.6576 38.686 15.4917C38.7152 15.2081 39.0084 15.0586 39.0584 14.7799C39.0791 14.6709 39.0574 14.5542 39.0772 14.4443C39.08 14.4299 39.0838 14.4157 39.0885 14.4018L38.916 14.5233C39.1093 14.2928 39.2064 13.9726 39.3478 13.6929C39.5048 13.3867 39.721 13.1162 39.9831 12.8979C40.2453 12.6796 40.548 12.5179 40.873 12.4227C41.4876 12.2395 42.1371 12.2896 42.7574 12.4449C43.3472 12.5952 43.9122 12.8334 44.4344 13.1519C44.6209 13.2542 44.7866 13.392 44.9227 13.5579C45.0367 13.7299 45.1336 13.9131 45.2121 14.1048C45.3949 14.4925 45.8946 14.8513 45.4968 14.9053C45.1659 14.9506 45.4675 15.1879 45.641 15.348C45.6801 15.3794 45.7139 15.4172 45.7409 15.4599C45.7697 15.5209 45.7829 15.5883 45.7793 15.656C45.7757 15.7236 45.7553 15.7892 45.7202 15.8466C45.6532 15.9334 45.9247 15.9508 45.8323 15.9932Z" fill="#865A61"/>
<path opacity="0.1" d="M45.641 15.348L45.6033 15.754C45.6033 15.754 41.6479 10.6249 38.5711 16.4166C38.5711 16.4166 38.556 16.3462 38.5305 16.2276C38.5909 16.1529 38.6451 16.0732 38.6927 15.9894C38.7492 15.836 38.6681 15.6576 38.6861 15.4917C38.7153 15.2081 39.0084 15.0586 39.0584 14.7799C39.0791 14.6709 39.0575 14.5542 39.0773 14.4443C39.08 14.4299 39.0838 14.4157 39.0886 14.4018L38.9161 14.5233C39.1093 14.2928 39.2064 13.9726 39.3478 13.6929C39.5049 13.3867 39.721 13.1162 39.9832 12.8979C40.2454 12.6796 40.5481 12.5179 40.873 12.4227C41.4877 12.2395 42.1371 12.2896 42.7574 12.4449C43.3472 12.5952 43.9123 12.8334 44.4344 13.1519C44.621 13.2542 44.7867 13.392 44.9227 13.5579C45.0367 13.7299 45.1337 13.9131 45.2121 14.1048C45.395 14.4925 45.8946 14.8513 45.4968 14.9053C45.1659 14.9506 45.4676 15.1879 45.641 15.348Z" fill="black"/>
<g opacity="0.1">
<path opacity="0.1" d="M45.7386 15.9404C45.7191 15.9629 45.7049 15.9896 45.6971 16.0186C45.6893 16.0475 45.6882 16.0779 45.6937 16.1074C45.5976 16.1942 45.4628 16.0919 45.3846 15.981C45.3054 15.8711 45.2158 15.7351 45.0961 15.7505C45.0392 15.7691 44.984 15.7926 44.9311 15.8209C44.7426 15.8827 44.5833 15.656 44.4777 15.4573C44.2939 15.1091 44.1101 14.7613 43.9262 14.4138C43.5577 14.6327 43.1222 14.4031 42.7564 14.1765C42.3906 13.9498 41.9551 13.7193 41.5856 13.9383C41.0436 14.2585 41.0238 15.3261 40.462 15.5895C40.281 15.6743 40.0708 15.656 39.903 15.7727C39.737 15.8884 39.6475 16.1112 39.573 16.3244C39.5455 16.4457 39.4807 16.5549 39.3883 16.6359C39.3295 16.6673 39.2641 16.6836 39.1978 16.6832C39.0313 16.7121 38.86 16.6875 38.7077 16.6128C38.6164 16.5508 38.5509 16.4563 38.524 16.3476C38.5052 16.434 38.5128 16.5242 38.5456 16.6061C38.5785 16.688 38.635 16.7576 38.7077 16.8057C38.86 16.8804 39.0313 16.905 39.1978 16.8761C39.2641 16.8765 39.3295 16.8602 39.3883 16.8288C39.4807 16.7478 39.5455 16.6386 39.573 16.5173C39.6475 16.3041 39.737 16.0813 39.903 15.9656C40.0707 15.8489 40.281 15.8672 40.462 15.7823C41.0238 15.519 41.0436 14.4514 41.5856 14.1312C41.9551 13.9122 42.3906 14.1427 42.7564 14.3694C43.1222 14.596 43.5577 14.8256 43.9262 14.6066C44.1101 14.9539 44.2939 15.3017 44.4777 15.6502C44.5833 15.8489 44.7426 16.0755 44.9311 16.0138C44.984 15.9855 45.0392 15.962 45.0961 15.9434C45.2158 15.928 45.3054 16.064 45.3846 16.1739C45.4628 16.2848 45.5976 16.3871 45.6937 16.3003C45.6885 16.245 45.7015 16.1894 45.7308 16.1426C45.76 16.0957 45.8037 16.0602 45.8549 16.0418C45.9284 16.008 45.7721 15.99 45.7386 15.9404Z" fill="black"/>
<path opacity="0.1" d="M45.4305 14.9769C45.459 14.9652 45.4889 14.9574 45.5195 14.9539C45.6948 14.9301 45.6956 14.8469 45.6261 14.7283C45.5931 14.7465 45.5568 14.7576 45.5195 14.761C45.3302 14.7869 45.3482 14.8757 45.4305 14.9769Z" fill="black"/>
<path opacity="0.1" d="M45.7914 15.7848C45.8045 15.7226 45.8042 15.6582 45.7904 15.5962C45.782 15.6346 45.7657 15.6708 45.7427 15.7024C45.7131 15.7407 45.7495 15.7654 45.7914 15.7848Z" fill="black"/>
<path opacity="0.1" d="M38.7141 15.5068C38.7121 15.5179 38.7098 15.5288 38.7086 15.5402C38.7048 15.6271 38.711 15.7141 38.727 15.7995C38.7381 15.7018 38.7338 15.603 38.7141 15.5068V15.5068Z" fill="black"/>
<path opacity="0.1" d="M39.0969 14.3301C39.0525 14.4161 38.9995 14.4971 38.9387 14.5718L39.0909 14.4646C39.0901 14.4197 39.0921 14.3748 39.0969 14.3301V14.3301Z" fill="black"/>
</g>
<path d="M38.5709 16.3199C38.5709 16.3199 38.0021 13.7183 38.1831 13.3011C38.1831 13.3011 37.6918 12.2703 37.6918 12.0249C37.668 11.6153 37.5435 11.2185 37.3299 10.8713C37.0713 10.4541 36.7869 8.51521 38.3382 8.04889C39.8895 7.58257 41.0788 7.16534 41.2598 6.84628C41.4407 6.52722 44.1037 6.72356 44.8277 7.95072C45.5516 9.17787 46.017 8.93244 46.017 8.93244C46.017 8.93244 47.1287 9.64419 47.1287 10.2823C47.1287 10.9204 46.7926 11.2395 47.1287 11.3867C47.4648 11.534 47.2063 14.1847 45.7326 14.2583L45.6033 15.6572C45.6033 15.6572 41.6476 10.5277 38.5709 16.3199Z" fill="#FB7B00"/>
<path opacity="0.1" d="M38.7403 8.55591C38.7403 8.55591 38.3986 10.6054 39.0231 11.2926L38.7403 8.55591Z" fill="black"/>
<path opacity="0.1" d="M40.3428 8.08569C40.3428 8.08569 39.4708 10.2799 39.6829 10.7018L40.3428 8.08569Z" fill="black"/>
<path opacity="0.1" d="M41.097 7.38647C41.097 7.38647 40.5079 10.2437 40.7907 10.4728L41.097 7.38647Z" fill="black"/>
<path opacity="0.1" d="M42.1105 8.1582C42.1105 8.1582 41.3799 9.99072 41.6745 10.2439L42.1105 8.1582Z" fill="black"/>
<path opacity="0.1" d="M43.4889 8.375C43.4889 8.375 42.6287 9.86994 42.8054 10.1352L43.4889 8.375Z" fill="black"/>
<path opacity="0.1" d="M45.2563 9.83374C45.2563 9.83374 44.3372 10.0869 44.5257 10.3883L45.2563 9.83374Z" fill="black"/>
<path opacity="0.1" d="M46.1284 11.3892C46.1284 11.3892 45.3035 11.7991 45.4567 12.0161L46.1284 11.3892Z" fill="black"/>
<path opacity="0.1" d="M38.1831 13.3011C38.1831 13.3011 43.4515 11.1116 45.7326 14.2583C45.7326 14.2583 42.9637 11.8496 38.1831 13.3011Z" fill="black"/>
<path d="M36.2791 31.2915L37.0132 30.5317L39.0886 32.6308L38.3546 33.3907L36.4458 31.4602L36.2791 31.2915Z" fill="#53526B"/>
<path d="M31.4634 26.4207C31.4634 26.4207 34.6763 26.7004 37.6667 30.1441L36.4203 31.4341L31.4634 26.4207Z" fill="#DFE6F5"/>
<path d="M41.1003 32.5782C41.1003 32.5782 38.0122 31.4264 37.7088 31.1509C37.4053 30.8755 35.6203 32.478 37.798 34.6564C37.798 34.6564 40.461 35.4326 41.1734 34.6564C41.8858 33.8802 41.1003 32.5782 41.1003 32.5782Z" fill="#FDC2CC"/>
<path d="M98.2632 54.5923H97.6353V69.0474H98.2632V54.5923Z" fill="#535461"/>
<path d="M102.207 69.0033L102.167 69.6544L102.112 70.5731L102.089 70.9564L102.033 71.8762L102.009 72.2595L101.954 73.1782L101.321 83.6298C101.293 84.0795 101.1 84.5016 100.779 84.8102C100.458 85.1187 100.034 85.2905 99.5938 85.2905H96.3046C95.8644 85.2905 95.4407 85.1187 95.1201 84.8101C94.7994 84.5015 94.6058 84.0794 94.5788 83.6298L93.9446 73.1782L93.8892 72.2595L93.8662 71.8762L93.8096 70.9564L93.7866 70.5731L93.7312 69.6544L93.6914 69.0033C93.6839 68.8784 93.7014 68.7532 93.743 68.6355C93.7846 68.5177 93.8493 68.4099 93.9331 68.3188C94.0169 68.2276 94.1181 68.1549 94.2304 68.1053C94.3428 68.0556 94.4638 68.03 94.5862 68.03H101.313C101.436 68.03 101.557 68.0557 101.669 68.1053C101.781 68.155 101.882 68.2277 101.966 68.3189C102.05 68.4101 102.114 68.5179 102.156 68.6356C102.197 68.7533 102.215 68.8785 102.207 69.0033V69.0033Z" fill="#65617D"/>
<path d="M102.167 69.6545L102.112 70.5732H93.7864L93.731 69.6545H102.167Z" fill="#9D9CB5"/>
<path d="M102.089 70.9565L102.033 71.8763H93.8661L93.8096 70.9565H102.089Z" fill="#9D9CB5"/>
<path d="M102.009 72.2595L101.954 73.1782H93.9446L93.8892 72.2595H102.009Z" fill="#9D9CB5"/>
<path d="M92.7727 60.0103C96.4274 62.7152 97.9491 66.9462 97.9491 66.9462C97.9491 66.9462 93.5453 66.7918 89.8905 64.0868C86.2358 61.3819 84.7141 57.1509 84.7141 57.1509C84.7141 57.1509 89.1179 57.3054 92.7727 60.0103Z" fill="#FB7B00"/>
<path d="M84.7141 57.1509C84.7141 57.1509 89.285 59.7469 90.7514 61.8961C92.2178 64.0452 97.9491 66.9462 97.9491 66.9462" stroke="#535461" stroke-width="2" stroke-miterlimit="10"/>
<path d="M95.1316 54.5603C97.1208 56.0325 97.9491 58.3354 97.9491 58.3354C97.9491 58.3354 95.5521 58.2514 93.5629 56.7791C91.5736 55.3068 90.7454 53.0039 90.7454 53.0039C90.7454 53.0039 93.1423 53.088 95.1316 54.5603Z" fill="#FB7B00"/>
<path d="M90.7454 53.0039C90.7454 53.0039 93.2333 54.4169 94.0314 55.5867C94.8296 56.7564 97.9491 58.3354 97.9491 58.3354" stroke="#535461" stroke-width="2" stroke-miterlimit="10"/>
<path d="M100.84 58.2182C98.5551 60.7876 98.0718 64.1448 98.0718 64.1448C98.0718 64.1448 101.293 63.3362 103.578 60.7667C105.863 58.1973 106.346 54.8401 106.346 54.8401C106.346 54.8401 103.125 55.6487 100.84 58.2182Z" fill="#FB7B00"/>
<path d="M106.346 54.8401C106.346 54.8401 103.37 57.4739 102.613 59.2886C101.857 61.1033 98.0718 64.1448 98.0718 64.1448" stroke="#535461" stroke-width="2" stroke-miterlimit="10"/>
<defs>
<linearGradient id="paint0_linear" x1="42.8303" y1="85.2695" x2="42.8303" y2="6.3667" gradientUnits="userSpaceOnUse">
<stop stop-color="#808080" stop-opacity="0.25"/>
<stop offset="0.53514" stop-color="#808080" stop-opacity="0.12"/>
<stop offset="1" stop-color="#808080" stop-opacity="0.1"/>
</linearGradient>
</defs>
</svg>
