<svg width="36" height="36" viewBox="0 0 36 36" fill="none" xmlns="http://www.w3.org/2000/svg">
<path d="M18 3C19.5913 3 21.1174 3.63214 22.2426 4.75736C23.3679 5.88258 24 7.4087 24 9V12H26.625C27.0682 12 27.5071 12.0873 27.9166 12.2569C28.326 12.4265 28.6981 12.6751 29.0115 12.9885C29.3249 13.3019 29.5735 13.674 29.7431 14.0834C29.9127 14.4929 30 14.9318 30 15.375V29.625C30 30.0682 29.9127 30.5071 29.7431 30.9166C29.5735 31.326 29.3249 31.6981 29.0115 32.0115C28.6981 32.3249 28.326 32.5735 27.9166 32.7431C27.5071 32.9127 27.0682 33 26.625 33H9.375C8.47989 33 7.62145 32.6444 6.98851 32.0115C6.35558 31.3785 6 30.5201 6 29.625V15.375C6 14.4799 6.35558 13.6215 6.98851 12.9885C7.62145 12.3556 8.47989 12 9.375 12H12V9C12 7.4087 12.6321 5.88258 13.7574 4.75736C14.8826 3.63214 16.4087 3 18 3ZM26.625 14.25H9.375C9.07663 14.25 8.79048 14.3685 8.5795 14.5795C8.36853 14.7905 8.25 15.0766 8.25 15.375V29.625C8.25 30.246 8.754 30.75 9.375 30.75H26.625C26.9234 30.75 27.2095 30.6315 27.4205 30.4205C27.6315 30.2095 27.75 29.9234 27.75 29.625V15.375C27.75 15.0766 27.6315 14.7905 27.4205 14.5795C27.2095 14.3685 26.9234 14.25 26.625 14.25ZM18 20.25C18.5967 20.25 19.169 20.4871 19.591 20.909C20.0129 21.331 20.25 21.9033 20.25 22.5C20.25 23.0967 20.0129 23.669 19.591 24.091C19.169 24.5129 18.5967 24.75 18 24.75C17.4033 24.75 16.831 24.5129 16.409 24.091C15.9871 23.669 15.75 23.0967 15.75 22.5C15.75 21.9033 15.9871 21.331 16.409 20.909C16.831 20.4871 17.4033 20.25 18 20.25ZM18 5.25C17.0054 5.25 16.0516 5.64509 15.3483 6.34835C14.6451 7.05161 14.25 8.00544 14.25 9V12H21.75V9C21.75 8.00544 21.3549 7.05161 20.6517 6.34835C19.9484 5.64509 18.9946 5.25 18 5.25Z" fill="black"/>
</svg>
