<svg width="146" height="25" viewBox="0 0 146 25" fill="none" xmlns="http://www.w3.org/2000/svg">
<g clip-path="url(#clip0)">
<path d="M10.7153 1.76367C4.79495 1.76367 -0.0224609 6.57974 -0.0224609 12.5007C-0.0224609 18.4217 4.79495 23.2378 10.7153 23.2378C16.6356 23.2378 21.453 18.4217 21.453 12.5007C21.453 6.57974 16.6356 1.76367 10.7153 1.76367ZM10.7153 22.5226C5.18937 22.5226 0.694057 18.0266 0.694057 12.5007C0.694057 6.97483 5.18937 2.47885 10.7153 2.47885C16.2412 2.47885 20.7365 6.97483 20.7365 12.5007C20.7365 18.0266 16.2412 22.5226 10.7153 22.5226Z" fill="white"/>
<path d="M13.0581 6.47286H11.2715C8.99606 6.45009 8.70543 7.85835 8.70543 9.38246V10.4907H7.70097C7.65557 10.4846 7.60938 10.4891 7.566 10.5038C7.52261 10.5185 7.48319 10.543 7.45081 10.5754C7.41842 10.6078 7.39393 10.6472 7.37925 10.6906C7.36457 10.7339 7.36008 10.7801 7.36615 10.8255V12.8345C7.36008 12.8799 7.36457 12.926 7.37925 12.9694C7.39393 13.0128 7.41842 13.0522 7.45081 13.0846C7.48319 13.117 7.52261 13.1415 7.566 13.1562C7.60938 13.1709 7.65557 13.1753 7.70097 13.1693H8.70543V18.1916C8.69985 18.2371 8.70474 18.2832 8.71973 18.3265C8.73471 18.3698 8.7594 18.4092 8.7919 18.4415C8.8244 18.4738 8.86385 18.4982 8.90724 18.5129C8.95063 18.5277 8.99682 18.5323 9.04226 18.5264H11.088C11.2856 18.5492 11.4456 18.3891 11.3827 18.1916L11.384 13.1693H13.0581C13.1035 13.1753 13.1497 13.1709 13.1931 13.1562C13.2365 13.1415 13.2759 13.117 13.3083 13.0846C13.3407 13.0522 13.3652 13.0128 13.3798 12.9694C13.3945 12.926 13.399 12.8799 13.3929 12.8345V10.8255C13.399 10.7801 13.3945 10.7339 13.3798 10.6906C13.3652 10.6472 13.3407 10.6078 13.3083 10.5754C13.2759 10.543 13.2365 10.5185 13.1931 10.5038C13.1497 10.4891 13.1035 10.4846 13.0581 10.4907H11.382L11.384 9.48625C11.449 9.05835 11.449 9.12799 11.8461 9.15143H13.0441C13.1371 9.13067 13.2362 9.14205 13.3059 9.07442C13.3755 9.00679 13.4157 8.91437 13.3923 8.81661V6.80768C13.3984 6.76232 13.3941 6.71614 13.3795 6.67274C13.3649 6.62935 13.3405 6.58991 13.3081 6.55751C13.2758 6.5251 13.2364 6.5006 13.193 6.48592C13.1497 6.47124 13.1035 6.46677 13.0581 6.47286V6.47286ZM12.6999 8.44429L11.8601 8.41214C10.8202 8.41214 10.7331 8.97665 10.7331 9.55455L10.7304 10.8242C10.7303 10.8712 10.7395 10.9178 10.7575 10.9612C10.7754 11.0047 10.8017 11.0442 10.8349 11.0775C10.8681 11.1108 10.9076 11.1372 10.951 11.1552C10.9945 11.1732 11.041 11.1825 11.088 11.1825H12.7233V12.4762H11.0894C10.9945 12.4762 10.9034 12.5139 10.8363 12.5809C10.7691 12.6479 10.7313 12.7389 10.7311 12.8338L10.7304 17.8568H9.37508V12.8345C9.37508 12.6369 9.24048 12.4769 9.04226 12.4769H8.03579V11.1831H9.04226C9.08925 11.1832 9.13579 11.174 9.17922 11.1561C9.22266 11.1382 9.26213 11.1118 9.29539 11.0787C9.36235 11.011 9.37441 10.92 9.37441 10.8249V9.38179C9.37441 7.88045 9.67776 7.16527 11.2708 7.16527H12.6992V8.44429H12.6999Z" fill="white"/>
</g>
<g clip-path="url(#clip1)">
<path d="M51.3403 1.76367C45.4199 1.76367 40.6025 6.57974 40.6025 12.5007C40.6025 18.4217 45.4199 23.2378 51.3403 23.2378C57.2606 23.2378 62.078 18.4217 62.078 12.5007C62.078 6.57974 57.2606 1.76367 51.3403 1.76367ZM51.3403 22.5226C45.8144 22.5226 41.3191 18.0266 41.3191 12.5007C41.3191 6.97483 45.8144 2.47885 51.3403 2.47885C56.8662 2.47885 61.3615 6.97483 61.3615 12.5007C61.3615 18.0266 56.8662 22.5226 51.3403 22.5226Z" fill="white"/>
<path d="M57.2283 9.18255C57.3026 9.04506 57.3638 8.9009 57.4111 8.75197C57.433 8.68288 57.4334 8.60878 57.4124 8.53944C57.3913 8.4701 57.3497 8.40879 57.293 8.3636C57.2363 8.3184 57.1673 8.29145 57.095 8.28631C57.0227 8.28116 56.9506 8.29806 56.8881 8.33478C56.545 8.53862 56.1735 8.6905 55.7859 8.78545C55.3153 8.36074 54.7041 8.1253 54.0702 8.12451C53.7259 8.12478 53.3851 8.19458 53.0683 8.32973C52.7516 8.46488 52.4654 8.66261 52.2269 8.91105C51.9884 9.15948 51.8025 9.45352 51.6804 9.77553C51.5583 10.0975 51.5024 10.4409 51.5162 10.785C50.0102 10.5954 48.635 9.83334 47.6758 8.65688C47.6391 8.61231 47.5921 8.57727 47.5389 8.55473C47.4857 8.53219 47.4279 8.52283 47.3703 8.52743C47.3127 8.53203 47.2571 8.55046 47.2082 8.58116C47.1592 8.61186 47.1184 8.65391 47.0892 8.70375C46.8696 9.08071 46.7502 9.50766 46.7425 9.94387C46.7347 10.3801 46.8389 10.811 47.045 11.1955C46.9945 11.204 46.9459 11.2217 46.9017 11.2477C46.8476 11.2823 46.803 11.3299 46.7721 11.3861C46.7412 11.4424 46.725 11.5056 46.7249 11.5698C46.7249 12.3299 47.0631 13.0276 47.6082 13.5017L47.5848 13.5252C47.5436 13.5717 47.5153 13.6282 47.5026 13.689C47.4899 13.7499 47.4933 13.8129 47.5124 13.8721C47.6261 14.2266 47.8159 14.5521 48.0685 14.8257C48.3211 15.0992 48.6305 15.3143 48.9749 15.4558C48.2675 15.8009 47.4758 15.9354 46.6941 15.8435C46.6138 15.8353 46.533 15.854 46.4644 15.8966C46.3958 15.9393 46.3433 16.0035 46.3151 16.0792C46.288 16.1555 46.2875 16.2386 46.3137 16.3152C46.3398 16.3918 46.391 16.4573 46.4591 16.5011C47.5218 17.1831 48.7581 17.5455 50.0209 17.545C54.1593 17.545 56.633 14.1834 56.633 10.9337L56.6323 10.8238C57.0334 10.5107 57.3817 10.1354 57.6642 9.71224C57.707 9.64826 57.728 9.5722 57.7242 9.49534C57.7204 9.41847 57.6919 9.34488 57.643 9.28545C57.5941 9.22603 57.5274 9.18393 57.4527 9.1654C57.378 9.14687 57.2993 9.15288 57.2283 9.18255V9.18255ZM56.0598 10.3578C56.0112 10.3927 55.9721 10.4393 55.9461 10.4932C55.9202 10.5471 55.9081 10.6067 55.9111 10.6665C55.9151 10.7549 55.9171 10.8446 55.9171 10.933C55.9171 13.8312 53.712 16.8292 50.0216 16.8292C49.3634 16.8295 48.7098 16.719 48.0883 16.5024C48.8327 16.3598 49.532 16.0406 50.1274 15.5716C50.1853 15.5259 50.2278 15.4634 50.2489 15.3927C50.27 15.322 50.2687 15.2464 50.2453 15.1765C50.2218 15.1065 50.1773 15.0454 50.1179 15.0017C50.0584 14.958 49.9869 14.9337 49.9131 14.9321C49.6244 14.9266 49.341 14.8533 49.0858 14.7181C48.8306 14.583 48.6107 14.3897 48.4439 14.154C48.6133 14.1426 48.7794 14.1145 48.9408 14.0709C49.0189 14.05 49.0876 14.0033 49.1357 13.9383C49.1838 13.8733 49.2085 13.7939 49.2057 13.7131C49.2029 13.6323 49.1728 13.5549 49.1203 13.4934C49.0678 13.4319 48.996 13.39 48.9167 13.3745C48.5906 13.3082 48.2886 13.1544 48.0432 12.9297C47.7977 12.705 47.618 12.4178 47.5231 12.0988C47.7013 12.1437 47.8841 12.1698 48.0669 12.1759C48.2243 12.1752 48.3702 12.0788 48.4191 11.9274C48.468 11.7761 48.4104 11.6093 48.2772 11.5209C47.9621 11.311 47.7195 11.0089 47.5825 10.656C47.4455 10.303 47.4208 9.91637 47.5118 9.54884C48.675 10.7424 50.2456 11.4531 51.91 11.539C52.0278 11.5397 52.131 11.4975 52.2026 11.4111C52.2743 11.3247 52.3017 11.2102 52.2763 11.1004C52.1847 10.706 52.2257 10.2924 52.3928 9.92358C52.56 9.55479 52.8441 9.25138 53.2011 9.0603C53.5581 8.86922 53.9681 8.80113 54.3677 8.86657C54.7673 8.932 55.1341 9.12732 55.4115 9.42228C55.4531 9.46664 55.5053 9.49969 55.5632 9.51831C55.621 9.53694 55.6827 9.54053 55.7423 9.52875C55.8528 9.50665 55.962 9.48121 56.0698 9.45174C56.0212 9.48813 55.9707 9.52188 55.9185 9.55286C55.849 9.5954 55.7961 9.66032 55.7685 9.73693C55.7409 9.81355 55.7403 9.89728 55.7666 9.97432C55.793 10.0514 55.8448 10.1171 55.9135 10.1608C55.9823 10.2044 56.0639 10.2234 56.1448 10.2145L56.2667 10.1991C56.1996 10.2543 56.1305 10.3073 56.0598 10.3578V10.3578Z" fill="white"/>
</g>
<path d="M92.8562 7.68457C91.5788 7.68457 90.3536 8.19204 89.4503 9.09534C88.547 9.99864 88.0396 11.2238 88.0396 12.5012C88.0396 13.7787 88.547 15.0038 89.4503 15.9071C90.3536 16.8104 91.5788 17.3179 92.8562 17.3179C94.1337 17.3179 95.3588 16.8104 96.2621 15.9071C97.1654 15.0038 97.6729 13.7787 97.6729 12.5012C97.6729 11.2238 97.1654 9.99864 96.2621 9.09534C95.3588 8.19204 94.1337 7.68457 92.8562 7.68457V7.68457ZM92.8562 15.6294C92.0263 15.6294 91.2304 15.2997 90.6436 14.7128C90.0567 14.126 89.7271 13.3301 89.7271 12.5002C89.7271 11.6703 90.0567 10.8744 90.6436 10.2875C91.2304 9.70071 92.0263 9.37103 92.8562 9.37103C93.6861 9.37103 94.482 9.70071 95.0689 10.2875C95.6557 10.8744 95.9854 11.6703 95.9854 12.5002C95.9854 13.3301 95.6557 14.126 95.0689 14.7128C94.482 15.2997 93.6861 15.6294 92.8562 15.6294V15.6294Z" fill="white"/>
<path d="M97.8634 8.63011C98.4836 8.63011 98.9863 8.12736 98.9863 7.50719C98.9863 6.88702 98.4836 6.38428 97.8634 6.38428C97.2432 6.38428 96.7405 6.88702 96.7405 7.50719C96.7405 8.12736 97.2432 8.63011 97.8634 8.63011Z" fill="white"/>
<path d="M101.746 6.3653C101.504 5.74257 101.136 5.17705 100.664 4.70494C100.191 4.23284 99.6257 3.86454 99.0029 3.62363C98.2741 3.35005 97.5041 3.20211 96.7258 3.18613C95.7227 3.14238 95.405 3.12988 92.8612 3.12988C90.3175 3.12988 89.9914 3.12988 88.9966 3.18613C88.2189 3.2013 87.4495 3.34926 86.7216 3.62363C86.0986 3.86426 85.5328 4.23246 85.0605 4.7046C84.5882 5.17674 84.2198 5.74241 83.9789 6.3653C83.7053 7.09406 83.5577 7.86409 83.5425 8.64238C83.4977 9.64446 83.4841 9.96217 83.4841 12.507C83.4841 15.0507 83.4841 15.3747 83.5425 16.3715C83.5581 17.1507 83.705 17.9195 83.9789 18.6497C84.2205 19.2723 84.5892 19.8378 85.0617 20.3099C85.5341 20.7819 86.0998 21.1503 86.7227 21.3913C87.4492 21.6759 88.2189 21.8344 88.9987 21.8601C90.0018 21.9038 90.3195 21.9174 92.8633 21.9174C95.407 21.9174 95.7331 21.9174 96.7279 21.8601C97.5061 21.8443 98.276 21.6967 99.005 21.4236C99.6276 21.1822 100.193 20.8135 100.665 20.3413C101.138 19.8691 101.506 19.3036 101.748 18.6809C102.022 17.9518 102.169 17.183 102.184 16.4038C102.229 15.4018 102.242 15.084 102.242 12.5393C102.242 9.99447 102.242 9.67155 102.184 8.67467C102.172 7.88537 102.024 7.1041 101.746 6.3653V6.3653ZM100.477 16.2945C100.47 16.8948 100.361 17.4895 100.153 18.0528C99.9965 18.4579 99.757 18.8257 99.4498 19.1327C99.1427 19.4396 98.7747 19.6789 98.3695 19.8351C97.8125 20.0418 97.2241 20.1514 96.63 20.159C95.6404 20.2049 95.3612 20.2163 92.8237 20.2163C90.2841 20.2163 90.0248 20.2163 89.0164 20.159C88.4226 20.1518 87.8345 20.0422 87.2779 19.8351C86.8713 19.6799 86.5018 19.441 86.1934 19.134C85.8849 18.827 85.6444 18.4586 85.4873 18.0528C85.2825 17.4956 85.173 16.9078 85.1633 16.3143C85.1185 15.3247 85.1081 15.0455 85.1081 12.508C85.1081 9.96947 85.1081 9.71009 85.1633 8.70071C85.17 8.10074 85.2796 7.50636 85.4873 6.94342C85.805 6.12155 86.456 5.47467 87.2779 5.16009C87.8347 4.95399 88.4227 4.84443 89.0164 4.83613C90.007 4.79134 90.2852 4.77884 92.8237 4.77884C95.3623 4.77884 95.6227 4.77884 96.63 4.83613C97.2241 4.84328 97.8126 4.95287 98.3695 5.16009C98.7747 5.31663 99.1426 5.55613 99.4497 5.86325C99.7568 6.17036 99.9963 6.53829 100.153 6.94342C100.358 7.50066 100.467 8.08838 100.477 8.68197C100.522 9.67259 100.533 9.95071 100.533 12.4893C100.533 15.0268 100.533 15.2997 100.488 16.2955H100.477V16.2945Z" fill="white"/>
<g clip-path="url(#clip2)">
<path d="M137.622 10.2354C137.168 10.2354 136.831 10.3499 136.568 10.4945C136.526 10.3445 136.387 10.2347 136.224 10.2675H134.226C134.028 10.2347 133.868 10.3947 133.929 10.6023V17.9684C133.868 18.1559 134.028 18.3166 134.226 18.3032H136.224C136.422 18.3166 136.582 18.1559 136.582 17.9583L136.581 13.5066C136.58 13.5045 136.573 13.2916 136.707 13.145C136.815 13.0284 137.001 12.9688 137.257 12.9688C137.685 12.9688 137.875 13.1436 137.946 13.5347V17.9583C137.875 18.1559 138.035 18.3166 138.233 18.3032H140.339C140.537 18.3166 140.697 18.1559 140.626 17.9583V13.386C140.696 11.061 139.04 10.2354 137.622 10.2354V10.2354ZM139.981 17.6336H138.591V13.5347C138.591 12.7438 138.08 12.2537 137.258 12.2537C136.793 12.2537 136.432 12.3903 136.182 12.6595C135.836 13.0345 135.863 13.5099 135.937 13.6157V17.6336H134.583V10.9505H135.866V11.1755C135.866 11.2426 135.884 11.3084 135.919 11.3654C135.955 11.4225 136.005 11.4684 136.065 11.498C136.126 11.5276 136.193 11.5396 136.26 11.5327C136.326 11.5257 136.39 11.5001 136.442 11.4588L136.536 11.3865C136.807 11.1729 137.088 10.9512 137.622 10.9512C138.175 10.9512 139.981 11.1273 139.981 13.3867V17.6336H139.981Z" fill="white"/>
<path d="M131.919 6.89648C131.168 6.89648 130.557 7.5072 130.557 8.25854C130.557 9.00988 131.168 9.62059 131.919 9.62059C132.671 9.62059 133.281 9.00988 133.281 8.25854C133.281 7.5072 132.671 6.89648 131.919 6.89648ZM131.919 8.90541C131.563 8.90541 131.273 8.61479 131.273 8.25854C131.273 7.90229 131.563 7.61166 131.919 7.61166C132.276 7.61166 132.566 7.90229 132.566 8.25854C132.566 8.61479 132.276 8.90541 131.919 8.90541Z" fill="white"/>
<path d="M132.876 10.2349H130.888C130.691 10.2349 130.531 10.3949 130.58 10.6025V17.9686C130.531 18.1561 130.691 18.3168 130.888 18.3034H132.876C133.073 18.3168 133.233 18.1561 133.233 17.9585V10.5925C133.233 10.4976 133.196 10.4067 133.129 10.3396C133.061 10.2725 132.971 10.2349 132.876 10.2349ZM132.589 17.6337H131.246V10.9507H132.589V17.6337Z" fill="white"/>
<path d="M135.269 2.20996C129.348 2.20996 124.531 7.02603 124.531 12.947C124.531 18.868 129.348 23.6841 135.269 23.6841C141.19 23.6841 146.006 18.868 146.006 12.947C146.006 7.02603 141.19 2.20996 135.269 2.20996ZM135.269 22.9689C129.743 22.9689 125.247 18.4729 125.247 12.947C125.247 7.42112 129.743 2.92514 135.269 2.92514C140.794 2.92514 145.29 7.42112 145.29 12.947C145.29 18.4729 140.794 22.9689 135.269 22.9689Z" fill="white"/>
</g>
<defs>
<clipPath id="clip0">
<rect width="21.4286" height="21.4286" fill="white" transform="translate(0 1.78564)"/>
</clipPath>
<clipPath id="clip1">
<rect width="21.4286" height="21.4286" fill="white" transform="translate(40.625 1.78564)"/>
</clipPath>
<clipPath id="clip2">
<rect width="21.4286" height="21.4286" fill="white" transform="translate(124.553 2.23193)"/>
</clipPath>
</defs>
</svg>
