<svg width="570" height="539" viewBox="0 0 570 539" fill="none" xmlns="http://www.w3.org/2000/svg">
<path d="M570 536.159H185.355V537.818H570V536.159Z" fill="#3F3D56"/>
<path d="M498.216 253.942C498.956 254.812 499.506 255.828 499.829 256.924C500.152 258.021 500.241 259.173 500.09 260.305C499.94 261.438 499.553 262.527 498.956 263.501C498.358 264.475 497.563 265.312 496.621 265.959L456.813 293.3L439.284 304.99C438.288 305.655 437.081 305.924 435.898 305.747C434.714 305.57 433.639 304.959 432.881 304.032V304.032C432.44 303.492 432.12 302.862 431.946 302.186C431.771 301.511 431.745 300.805 431.869 300.119C431.994 299.432 432.266 298.78 432.667 298.209C433.068 297.638 433.588 297.161 434.191 296.81L451.169 286.948L480.8 258.718L461.751 238.251L475.861 227.665L498.216 253.942Z" fill="#A0616A"/>
<path d="M404.607 511.378H394.869L389.086 430.922L413.778 430.216L404.607 511.378Z" fill="#A0616A"/>
<path d="M405.312 537.491C402.716 538.676 400.541 529.072 398.351 531.225C392.225 537.248 382.844 538.559 374.667 535.93L377.529 535.898C377.035 535.739 376.579 535.482 376.188 535.142C375.797 534.801 375.479 534.385 375.253 533.919C375.028 533.452 374.899 532.944 374.875 532.426C374.851 531.908 374.933 531.391 375.115 530.905V530.905C375.333 530.324 375.688 529.805 376.151 529.392C376.614 528.979 377.17 528.684 377.772 528.534L384.287 526.905L394.517 508.908L404.96 508.202C407.288 511.171 408.912 514.63 409.712 518.318C410.511 522.006 410.464 525.827 409.574 529.494C408.626 533.363 407.163 536.646 405.312 537.491Z" fill="#2F2E41"/>
<path d="M469.442 511.378H459.705L453.921 430.922L479.319 425.982L469.442 511.378Z" fill="#A0616A"/>
<path d="M470.148 537.491C467.551 538.676 465.376 529.072 463.186 531.225C457.06 537.248 447.679 538.559 439.502 535.93L442.364 535.898C441.871 535.739 441.415 535.482 441.024 535.142C440.632 534.801 440.314 534.385 440.089 533.919C439.863 533.452 439.734 532.944 439.711 532.426C439.687 531.908 439.769 531.391 439.951 530.905C440.168 530.325 440.524 529.805 440.987 529.392C441.449 528.979 442.006 528.685 442.607 528.534L449.122 526.905L459.352 508.908L470.501 507.497L470.782 507.957C472.937 511.432 474.327 515.327 474.858 519.381C475.389 523.436 475.05 527.558 473.862 531.471C472.935 534.442 471.673 536.794 470.148 537.491Z" fill="#2F2E41"/>
<path d="M480.483 229.485C471.528 230.731 465.329 235.637 462.804 245.424L446.344 215.022C445.368 213.089 445.121 210.87 445.648 208.77C446.174 206.671 447.44 204.831 449.212 203.589C451.093 202.271 453.406 201.721 455.679 202.054C457.951 202.387 460.011 203.576 461.435 205.379L480.483 229.485Z" fill="#FB7B00"/>
<path d="M497.732 422.453C457.711 440.167 416.753 442.347 374.976 430.922C390.232 371.731 408.245 318.21 408.134 274.245L449.053 270.716L455.353 280.708C470.301 304.414 480.618 330.741 485.76 358.294L497.732 422.453Z" fill="#2F2E41"/>
<path d="M430.71 183.203C442.399 183.203 451.875 173.723 451.875 162.03C451.875 150.337 442.399 140.857 430.71 140.857C419.021 140.857 409.545 150.337 409.545 162.03C409.545 173.723 419.021 183.203 430.71 183.203Z" fill="#A0616A"/>
<path d="M453.991 199.434L427.888 200.846L423.655 177.556L444.82 174.028L453.991 199.434Z" fill="#A0616A"/>
<path d="M451.169 274.245L422.572 275.051L408.134 277.068C401.047 253.649 395.081 230.284 409.545 210.727L426.477 193.789L451.875 193.083L452.211 193.276C456.244 195.587 459.37 199.205 461.074 203.531C462.777 207.858 462.956 212.636 461.581 217.078C455.279 237.567 451.23 256.915 451.169 274.245Z" fill="#FB7B00"/>
<path d="M407.429 339.88L405.655 364.132C405.56 365.431 404.999 366.652 404.075 367.57C403.152 368.488 401.928 369.042 400.628 369.128V369.128C399.88 369.178 399.129 369.072 398.424 368.815C397.719 368.559 397.075 368.158 396.533 367.639C395.992 367.12 395.564 366.493 395.278 365.799C394.991 365.106 394.853 364.36 394.871 363.61L395.435 339.88L413.073 272.833L413.778 231.9L433.532 231.194L432.121 278.479L407.429 339.88Z" fill="#A0616A"/>
<path d="M435.648 234.723C427.273 231.316 419.451 232.457 412.367 239.663L413.338 205.102C413.46 202.94 414.357 200.896 415.864 199.342C417.371 197.788 419.387 196.83 421.543 196.642V196.642C423.831 196.443 426.108 197.127 427.909 198.553C429.709 199.98 430.896 202.041 431.227 204.315L435.648 234.723Z" fill="#FB7B00"/>
<path d="M475.509 256.248H410.604C425.745 216.139 430.627 178.826 410.604 146.856C410.947 137.254 423.258 128.93 432.819 129.85C444.11 130.936 459.283 139.236 461.399 150.385L475.509 256.248Z" fill="#2F2E41"/>
<path d="M268.659 128.087H265.699V46.9561C265.699 40.7897 264.484 34.6837 262.126 28.9868C259.767 23.2898 256.309 18.1134 251.951 13.7531C247.592 9.3928 242.417 5.93404 236.723 3.57428C231.028 1.21452 224.924 -1.84789e-05 218.76 2.10873e-10H46.9386C40.7745 -1.3616e-05 34.6708 1.21454 28.976 3.5743C23.2811 5.93406 18.1066 9.39281 13.748 13.7531C9.38934 18.1134 5.93186 23.2898 3.57298 28.9868C1.21409 34.6838 -6.80554e-06 40.7898 0 46.9561V492.044C-4.86109e-06 498.21 1.21409 504.316 3.57298 510.013C5.93186 515.71 9.38934 520.887 13.748 525.247C18.1066 529.607 23.2811 533.066 28.976 535.426C34.6708 537.785 40.7746 539 46.9386 539H218.76C224.924 539 231.028 537.785 236.723 535.426C242.417 533.066 247.592 529.607 251.951 525.247C256.309 520.887 259.767 515.71 262.126 510.013C264.484 504.316 265.699 498.21 265.699 492.044V185.837H268.659V128.087Z" fill="#3F3D56"/>
<path d="M220.654 12.2163H198.226C199.257 14.746 199.651 17.4906 199.372 20.2083C199.093 22.926 198.151 25.5335 196.628 27.801C195.104 30.0685 193.047 31.9265 190.637 33.2112C188.227 34.496 185.538 35.168 182.807 35.1682H84.3723C81.6413 35.168 78.9523 34.496 76.5421 33.2112C74.1319 31.9265 72.0746 30.0685 70.5513 27.801C69.028 25.5335 68.0854 22.926 67.8068 20.2083C67.5281 17.4906 67.9218 14.746 68.9532 12.2163H48.0051C43.4019 12.2163 38.8437 13.1233 34.5908 14.8856C30.338 16.6478 26.4738 19.2307 23.2188 22.4869C19.9638 25.7432 17.3818 29.6088 15.6202 33.8633C13.8586 38.1177 12.9519 42.6776 12.9519 47.2825V491.717C12.9519 496.322 13.8586 500.882 15.6202 505.137C17.3818 509.391 19.9638 513.257 23.2188 516.513C26.4737 519.769 30.338 522.352 34.5908 524.114C38.8437 525.877 43.4019 526.784 48.0051 526.784H220.654C225.257 526.784 229.815 525.877 234.068 524.114C238.321 522.352 242.185 519.769 245.44 516.513C248.695 513.257 251.277 509.391 253.039 505.137C254.8 500.882 255.707 496.322 255.707 491.717V47.2825C255.707 37.9824 252.014 29.0631 245.44 22.4869C238.867 15.9107 229.951 12.2163 220.654 12.2163V12.2163Z" fill="white"/>
<path d="M225.391 81.6401H43.2686V237.909H225.391V81.6401Z" fill="#E6E6E6"/>
<path d="M97.3128 270.496C104.673 270.496 110.639 264.527 110.639 257.165C110.639 249.802 104.673 243.834 97.3128 243.834C89.9531 243.834 83.9868 249.802 83.9868 257.165C83.9868 264.527 89.9531 270.496 97.3128 270.496Z" fill="#FB7B00"/>
<path d="M103.976 256.054H98.4236V250.5H96.2026V256.054H90.6501V258.276H96.2026V263.831H98.4236V258.276H103.976V256.054Z" fill="white"/>
<path d="M167.645 270.496C175.004 270.496 180.971 264.527 180.971 257.165C180.971 249.802 175.004 243.834 167.645 243.834C160.285 243.834 154.319 249.802 154.319 257.165C154.319 264.527 160.285 270.496 167.645 270.496Z" fill="#FB7B00"/>
<path d="M174.308 258.276V256.054H160.982V258.276H174.308Z" fill="white"/>
<path d="M141.122 101.129H126.73C126.224 101.129 125.738 101.33 125.38 101.688C125.023 102.046 124.822 102.532 124.822 103.038V109.358C124.822 109.864 125.023 110.349 125.38 110.707C125.738 111.065 126.224 111.266 126.73 111.266H129.115V120.735H138.737V111.266H141.122C141.628 111.266 142.113 111.065 142.471 110.707C142.829 110.349 143.03 109.864 143.03 109.358V103.038C143.03 102.532 142.829 102.046 142.471 101.688C142.113 101.33 141.628 101.129 141.122 101.129Z" fill="#FB7B00"/>
<path d="M155.537 158.966C146.723 146.063 142.217 130.701 142.665 115.08C142.673 114.719 142.556 114.367 142.334 114.083C142.112 113.799 141.798 113.601 141.447 113.522V110.791H126.247V113.484H126.037C125.832 113.484 125.629 113.525 125.44 113.604C125.251 113.682 125.079 113.797 124.935 113.942C124.79 114.087 124.676 114.26 124.597 114.449C124.519 114.638 124.479 114.841 124.479 115.046C124.479 115.084 124.481 115.122 124.484 115.16C125.681 131.859 121.638 146.834 112.353 160.086C111.819 160.847 111.546 161.761 111.575 162.691L113.237 214.123C113.277 215.27 113.758 216.357 114.58 217.158C115.403 217.959 116.502 218.411 117.649 218.42H152.03C153.19 218.41 154.301 217.948 155.126 217.131C155.951 216.314 156.424 215.208 156.445 214.047L157.086 164.111C157.105 162.278 156.564 160.483 155.537 158.966V158.966Z" fill="#3F3D56"/>
<path opacity="0.2" d="M138.122 103.188C138.122 104.281 137.688 105.328 136.916 106.1C136.144 106.873 135.097 107.307 134.005 107.307C132.913 107.307 131.866 106.873 131.094 106.1C130.322 105.328 129.888 104.281 129.888 103.188" fill="black"/>
<path d="M150.095 176.05H145.932C145.534 173.47 144.227 171.117 142.246 169.418C140.265 167.718 137.742 166.784 135.132 166.784C132.523 166.784 129.999 167.718 128.019 169.418C126.038 171.117 124.73 173.47 124.333 176.05H120.17C119.727 176.05 119.289 176.146 118.886 176.331C118.484 176.516 118.126 176.786 117.838 177.122C117.549 177.458 117.337 177.853 117.215 178.279C117.094 178.705 117.066 179.153 117.133 179.591L121.655 208.996H147.622L153.115 179.69C153.198 179.246 153.182 178.789 153.069 178.352C152.956 177.915 152.747 177.508 152.459 177.16C152.171 176.813 151.81 176.533 151.401 176.341C150.992 176.149 150.546 176.05 150.095 176.05V176.05Z" fill="#FB7B00"/>
<path d="M225.391 301.602H43.2686V457.87H225.391V301.602Z" fill="#E6E6E6"/>
<path d="M97.3128 490.457C104.673 490.457 110.639 484.489 110.639 477.126C110.639 469.764 104.673 463.795 97.3128 463.795C89.9531 463.795 83.9868 469.764 83.9868 477.126C83.9868 484.489 89.9531 490.457 97.3128 490.457Z" fill="#FB7B00"/>
<path d="M103.976 476.016H98.4236V470.461H96.2026V476.016H90.6501V478.237H96.2026V483.792H98.4236V478.237H103.976V476.016Z" fill="white"/>
<path d="M167.645 490.457C175.004 490.457 180.971 484.489 180.971 477.126C180.971 469.764 175.004 463.795 167.645 463.795C160.285 463.795 154.319 469.764 154.319 477.126C154.319 484.489 160.285 490.457 167.645 490.457Z" fill="#FB7B00"/>
<path d="M174.308 478.237V476.015H160.982V478.237H174.308Z" fill="white"/>
<path d="M170.182 412.617L170.283 412.617C173.712 412.646 177.07 411.641 179.919 409.731C182.768 407.822 184.976 405.099 186.254 401.916C190.283 391.725 191.226 380.575 188.966 369.853C186.707 359.13 181.344 349.31 173.547 341.613C165.749 333.917 155.86 328.686 145.113 326.57C134.365 324.455 123.232 325.549 113.101 329.716C102.97 333.884 94.2884 340.94 88.1368 350.007C81.9852 359.074 78.6355 369.751 78.5049 380.708C78.3744 391.665 81.4686 402.419 87.4024 411.63C93.3362 420.841 101.847 428.103 111.876 432.51C114.993 433.891 118.454 434.297 121.806 433.675C125.158 433.053 128.243 431.433 130.658 429.026C135.838 423.817 141.997 419.686 148.781 416.869C155.564 414.053 162.838 412.608 170.182 412.617V412.617Z" fill="white"/>
<path d="M141.5 395.709C151.683 395.709 159.939 387.45 159.939 377.263C159.939 367.076 151.683 358.818 141.5 358.818C131.316 358.818 123.061 367.076 123.061 377.263C123.061 387.45 131.316 395.709 141.5 395.709Z" fill="#FFDB0E"/>
</svg>
