<svg width="388" height="402" viewBox="0 0 388 402" fill="none" xmlns="http://www.w3.org/2000/svg">
<path d="M88.0873 140.557L73.3804 150.195L226.545 383.532L241.251 373.894L88.0873 140.557Z" fill="#E6E6E6"/>
<path d="M53.0743 52.7465L87.1013 104.585C87.7602 105.588 87.9931 106.813 87.7486 107.988C87.5041 109.163 86.8024 110.194 85.7977 110.852C84.793 111.511 83.5677 111.743 82.3914 111.499C81.215 111.255 80.184 110.553 79.525 109.55L40.4069 49.9555C35.0972 49.5125 29.7602 50.3882 24.8713 52.5049L67.4921 117.435C68.1506 118.439 68.3831 119.663 68.1385 120.838C67.8939 122.013 67.1922 123.043 66.1877 123.702C65.1833 124.36 63.9583 124.593 62.7821 124.348C61.6059 124.104 60.5749 123.404 59.9158 122.4L17.295 57.4699C13.4041 61.107 10.4737 65.6491 8.76484 70.6917L47.8829 130.286C48.5414 131.29 48.7739 132.514 48.5293 133.689C48.2847 134.864 47.583 135.894 46.5786 136.552C45.5741 137.21 44.3491 137.443 43.1729 137.199C41.9968 136.955 40.9658 136.254 40.3067 135.251L6.2797 83.4127C5.40575 97.8665 10.1221 114.998 20.4584 130.745C39.6688 160.011 71.0048 173.405 90.4493 160.663C109.894 147.92 110.084 113.865 90.8732 84.5993C80.5369 68.8526 66.6903 57.7045 53.0743 52.7465Z" fill="#E6E6E6"/>
<path d="M154.027 108.636H136.439V387.683H154.027V108.636Z" fill="#E6E6E6"/>
<path d="M144.967 126.742C168.221 126.742 187.071 98.3702 187.071 63.3712C187.071 28.3723 168.221 0 144.967 0C121.713 0 102.863 28.3723 102.863 63.3712C102.863 98.3702 121.713 126.742 144.967 126.742Z" fill="#E6E6E6"/>
<path d="M144.967 115.512C164.1 115.512 179.61 92.1677 179.61 63.3711C179.61 34.5745 164.1 11.2302 144.967 11.2302C125.834 11.2302 110.324 34.5745 110.324 63.3711C110.324 92.1677 125.834 115.512 144.967 115.512Z" fill="#CCCCCC"/>
<path d="M194 402C301.143 402 388 397.02 388 390.878C388 384.735 301.143 379.756 194 379.756C86.8568 379.756 0 384.735 0 390.878C0 397.02 86.8568 402 194 402Z" fill="#E6E6E6"/>
<path d="M308.731 390.715C236.027 377.621 161.566 377.621 88.8628 390.715C87.7079 390.924 86.5211 390.877 85.3863 390.578C84.2515 390.279 83.1962 389.734 82.2949 388.983C81.3936 388.232 80.6684 387.292 80.1702 386.23C79.6721 385.168 79.4133 384.01 79.4121 382.837V283.307H318.181V382.837C318.18 384.01 317.921 385.168 317.423 386.23C316.925 387.292 316.2 388.232 315.299 388.983C314.397 389.734 313.342 390.279 312.207 390.578C311.072 390.877 309.886 390.924 308.731 390.715V390.715Z" fill="#FFDB0E"/>
<path d="M296.33 209.817C290.817 209.812 285.341 210.728 280.13 212.526C272.529 196.053 260.384 182.089 245.119 172.271C229.854 162.453 212.103 157.19 193.949 157.098C175.795 157.006 157.992 162.09 142.629 171.753C127.265 181.417 114.979 195.258 107.212 211.653C99.5639 209.509 91.5122 209.233 83.7351 210.849C75.958 212.464 68.6833 215.923 62.5239 220.935C56.3644 225.947 51.5006 232.364 48.3421 239.647C45.1837 246.929 43.8231 254.863 44.3749 262.781C44.9268 270.699 47.3749 278.368 51.5131 285.143C55.6514 291.917 61.3585 297.599 68.1537 301.709C74.9489 305.82 82.6333 308.238 90.5594 308.761C98.4855 309.283 106.421 307.895 113.698 304.713C122.444 318.03 134.39 328.945 148.445 336.461C162.5 343.977 178.216 347.855 194.157 347.74C210.097 347.626 225.756 343.522 239.701 335.805C253.646 328.087 265.433 317.002 273.987 303.56C280.67 306.931 288.029 308.746 295.514 308.869C302.999 308.991 310.414 307.418 317.204 304.268C323.993 301.117 329.981 296.472 334.716 290.679C339.452 284.886 342.813 278.097 344.547 270.82C346.281 263.544 346.344 255.97 344.73 248.666C343.115 241.362 339.867 234.519 335.227 228.649C330.587 222.779 324.677 218.035 317.941 214.774C311.204 211.512 303.816 209.818 296.33 209.817V209.817Z" fill="#FFDB0E"/>
<path d="M98.599 252.42H97.533C97.4967 238.24 100.637 224.232 106.725 211.423L107.689 211.879C101.669 224.545 98.5628 238.398 98.599 252.42V252.42Z" fill="#FB7B00"/>
<path d="M289.401 252.42H288.335C288.368 238.721 285.404 225.18 279.651 212.746L280.619 212.299C286.437 224.874 289.435 238.567 289.401 252.42V252.42Z" fill="#FB7B00"/>
<path d="M79.5406 329.621L79.2834 328.587C79.5843 328.513 109.878 321.079 154.272 317.39C195.247 313.986 256.968 313.165 318.311 328.588L318.051 329.621C256.858 314.236 195.272 315.054 154.383 318.45C110.068 322.13 79.8406 329.547 79.5406 329.621Z" fill="#FB7B00"/>
<path d="M79.5406 344L79.2834 342.966C79.5843 342.891 109.878 335.457 154.272 331.769C195.247 328.364 256.968 327.543 318.311 342.966L318.051 343.999C256.858 328.614 195.272 329.433 154.383 332.828C110.068 336.509 79.8406 343.925 79.5406 344Z" fill="#FB7B00"/>
<path d="M79.5406 358.378L79.2834 357.344C79.5843 357.27 109.878 349.836 154.272 346.147C195.247 342.743 256.968 341.922 318.311 357.345L318.051 358.378C256.858 342.993 195.272 343.811 154.383 347.207C110.068 350.887 79.8406 358.304 79.5406 358.378Z" fill="#FB7B00"/>
<path d="M275.686 280.195L262.772 275.807L275.17 212.581L266.647 211.807C258.335 218.178 247.268 220.676 233.07 218.774L255.799 253.097L244.209 261.271L207.239 216.962C205.572 214.965 204.659 212.447 204.659 209.847C204.659 207.436 205.444 205.091 206.895 203.165C208.346 201.239 210.384 199.836 212.702 199.169L252.183 187.806L298.415 192.968C305.405 203.615 305.678 211.02 295.038 213.156L275.686 280.195Z" fill="#2F2E41"/>
<path d="M262.469 304.791C261.134 304.706 259.838 304.309 258.685 303.63C257.533 302.951 256.558 302.01 255.838 300.884C255.118 299.757 254.674 298.477 254.542 297.147C254.41 295.817 254.594 294.475 255.079 293.229L261.499 276.734C264.76 270.561 269.236 271.334 274.521 276.734L277.104 284.304C277.316 284.927 277.401 285.587 277.352 286.244C277.303 286.9 277.121 287.54 276.819 288.125L270.561 300.214C269.802 301.679 268.633 302.892 267.196 303.705C265.759 304.518 264.117 304.895 262.469 304.791V304.791Z" fill="#2F2E41"/>
<path d="M245.779 283.19C244.444 283.105 243.148 282.708 241.995 282.029C240.843 281.35 239.868 280.409 239.148 279.283C238.428 278.156 237.984 276.876 237.852 275.546C237.72 274.216 237.904 272.874 238.389 271.628L244.809 255.133C248.07 248.96 252.546 249.733 257.831 255.133L260.414 262.703C260.626 263.326 260.711 263.986 260.662 264.642C260.613 265.299 260.431 265.939 260.129 266.524L253.871 278.613C253.112 280.078 251.943 281.291 250.506 282.104C249.069 282.917 247.427 283.294 245.779 283.19Z" fill="#2F2E41"/>
<path d="M253.991 127.418C261.979 127.418 268.454 120.948 268.454 112.966C268.454 104.985 261.979 98.5144 253.991 98.5144C246.003 98.5144 239.527 104.985 239.527 112.966C239.527 120.948 246.003 127.418 253.991 127.418Z" fill="#FFB9B9"/>
<path d="M276.461 133.354L256.574 143.676L252.441 125.095L266.13 116.579L276.461 133.354Z" fill="#FFB9B9"/>
<path d="M300.481 195.548C280.637 189.559 262.631 186.456 249.6 191.161C254.092 178.535 245.801 159.256 236.686 139.547C240.619 134.41 246.89 132.42 253.991 131.547C261.76 137.184 267.177 133.566 271.296 124.837C280.278 124.477 288.934 127.655 297.382 133.095C290.778 154.229 291.967 175.041 300.481 195.548Z" fill="#FB7B00"/>
<path d="M249.342 194.258C246.208 196.103 243.316 199.212 240.56 203.032C235.903 200.183 231.804 196.94 228.576 193.083C226.316 190.348 224.775 187.092 224.093 183.612C223.41 180.131 223.609 176.535 224.669 173.151L233.495 144.489C234.228 142.108 235.653 139.999 237.587 138.428L238.752 137.483L250.375 159.418L238.752 181.096C240.226 185.045 244.569 189.605 249.342 194.258Z" fill="#FB7B00"/>
<path d="M253.342 216.11C252.288 216.59 251.137 216.819 249.98 216.778C248.823 216.736 247.691 216.427 246.674 215.873C245.657 215.319 244.783 214.537 244.121 213.587C243.459 212.638 243.028 211.547 242.86 210.402L240.939 197.262L247.655 193.649L256.177 204.797C256.858 205.688 257.329 206.72 257.556 207.817C257.783 208.915 257.759 210.049 257.486 211.136C257.214 212.223 256.7 213.235 255.982 214.096C255.265 214.957 254.363 215.646 253.342 216.11V216.11Z" fill="#FFB9B9"/>
<path d="M268.584 112.334L266.114 112.407L259.264 102.711C250.486 103.618 243.293 107.428 237.207 113.265L236.59 109.154C236.001 105.234 236.938 101.237 239.209 97.9862C241.479 94.7354 244.91 92.4775 248.796 91.6769H248.796C250.837 91.2565 252.942 91.2513 254.985 91.6616C257.028 92.072 258.967 92.8895 260.687 94.0654C262.407 95.2413 263.872 96.7514 264.995 98.5056C266.118 100.26 266.875 102.222 267.222 104.275L268.584 112.334Z" fill="#2F2E41"/>
<path d="M240.809 203.037C240.329 201.985 240.1 200.835 240.142 199.678C240.183 198.522 240.493 197.391 241.047 196.375C241.601 195.359 242.385 194.486 243.335 193.824C244.285 193.163 245.376 192.732 246.522 192.564L259.673 190.645L263.289 197.355L252.132 205.87C251.241 206.551 250.208 207.021 249.109 207.248C248.011 207.474 246.876 207.451 245.788 207.178C244.7 206.906 243.688 206.393 242.826 205.676C241.964 204.959 241.275 204.057 240.809 203.037V203.037Z" fill="#FFB9B9"/>
<path d="M302.987 191.085C290.475 192.056 276.815 195.954 262.514 201.484C262.336 197.242 260.797 193.17 258.123 189.871C271.112 186.452 282.898 182.441 290.15 176.193L285.759 143.16L295.316 132.321L296.964 133.181C298.333 133.891 299.537 134.882 300.498 136.088C301.46 137.293 302.156 138.688 302.544 140.18C306.579 155.862 308.371 170.888 307.139 185.028C307.298 186.369 306.965 187.722 306.201 188.836C305.437 189.949 304.295 190.749 302.987 191.085V191.085Z" fill="#FB7B00"/>
<path d="M51.104 387.742C39.4681 395.014 27.8322 395.011 16.1962 387.733C15.8278 387.507 15.5287 387.183 15.3312 386.799C15.1338 386.414 15.0456 385.983 15.0763 385.552L18.7071 338.39H48.0738L52.2218 385.535C52.2576 385.97 52.1721 386.407 51.9748 386.796C51.7775 387.186 51.4761 387.513 51.104 387.742V387.742Z" fill="#FB7B00"/>
<path d="M33.2551 344.258C41.4393 344.258 48.0739 341.87 48.0739 338.923C48.0739 335.977 41.4393 333.588 33.2551 333.588C25.0709 333.588 18.4363 335.977 18.4363 338.923C18.4363 341.87 25.0709 344.258 33.2551 344.258Z" fill="#FB7B00"/>
<path d="M44.8701 337.122C37.1483 342.55 29.6731 342.55 22.4446 337.122V328.586H44.8701V337.122Z" fill="#FFDB0E"/>
<path d="M33.6573 332.854C39.85 332.854 44.8701 330.944 44.8701 328.586C44.8701 326.229 39.85 324.318 33.6573 324.318C27.4647 324.318 22.4446 326.229 22.4446 328.586C22.4446 330.944 27.4647 332.854 33.6573 332.854Z" fill="#FFDB0E"/>
<path d="M34.1914 328.587C34.7812 328.587 35.2593 328.348 35.2593 328.053C35.2593 327.758 34.7812 327.52 34.1914 327.52C33.6016 327.52 33.1235 327.758 33.1235 328.053C33.1235 328.348 33.6016 328.587 34.1914 328.587Z" fill="#E6E6E6"/>
<path d="M39.2339 328.587C39.8237 328.587 40.3018 328.348 40.3018 328.053C40.3018 327.758 39.8237 327.52 39.2339 327.52C38.6441 327.52 38.166 327.758 38.166 328.053C38.166 328.348 38.6441 328.587 39.2339 328.587Z" fill="#E6E6E6"/>
<path d="M36.7124 329.846C37.3022 329.846 37.7803 329.607 37.7803 329.312C37.7803 329.018 37.3022 328.779 36.7124 328.779C36.1226 328.779 35.6445 329.018 35.6445 329.312C35.6445 329.607 36.1226 329.846 36.7124 329.846Z" fill="#E6E6E6"/>
<path d="M26.6277 329.846C27.2175 329.846 27.6956 329.607 27.6956 329.312C27.6956 329.018 27.2175 328.779 26.6277 328.779C26.0379 328.779 25.5598 329.018 25.5598 329.312C25.5598 329.607 26.0379 329.846 26.6277 329.846Z" fill="#E6E6E6"/>
<path d="M29.1489 328.587C29.7387 328.587 30.2168 328.348 30.2168 328.053C30.2168 327.758 29.7387 327.52 29.1489 327.52C28.5592 327.52 28.0811 327.758 28.0811 328.053C28.0811 328.348 28.5592 328.587 29.1489 328.587Z" fill="#E6E6E6"/>
<path d="M31.6702 330.476C32.2599 330.476 32.7381 330.237 32.7381 329.942C32.7381 329.648 32.2599 329.409 31.6702 329.409C31.0804 329.409 30.6023 329.648 30.6023 329.942C30.6023 330.237 31.0804 330.476 31.6702 330.476Z" fill="#E6E6E6"/>
<path d="M373.549 387.742C361.913 395.014 350.277 395.011 338.641 387.733C338.273 387.507 337.974 387.183 337.776 386.799C337.579 386.414 337.491 385.983 337.521 385.552L341.152 338.39H370.519L374.667 385.535C374.703 385.97 374.617 386.407 374.42 386.796C374.223 387.186 373.921 387.513 373.549 387.742V387.742Z" fill="#FB7B00"/>
<path d="M355.7 344.258C363.884 344.258 370.519 341.87 370.519 338.923C370.519 335.977 363.884 333.588 355.7 333.588C347.516 333.588 340.881 335.977 340.881 338.923C340.881 341.87 347.516 344.258 355.7 344.258Z" fill="#FB7B00"/>
<path d="M367.315 337.122C359.593 342.55 352.118 342.55 344.89 337.122V328.586H367.315V337.122Z" fill="#FFDB0E"/>
<path d="M356.102 332.854C362.295 332.854 367.315 330.944 367.315 328.586C367.315 326.229 362.295 324.318 356.102 324.318C349.91 324.318 344.89 326.229 344.89 328.586C344.89 330.944 349.91 332.854 356.102 332.854Z" fill="#FFDB0E"/>
<path d="M356.636 328.587C357.226 328.587 357.704 328.348 357.704 328.053C357.704 327.758 357.226 327.52 356.636 327.52C356.047 327.52 355.569 327.758 355.569 328.053C355.569 328.348 356.047 328.587 356.636 328.587Z" fill="#E6E6E6"/>
<path d="M361.679 328.587C362.268 328.587 362.747 328.348 362.747 328.053C362.747 327.758 362.268 327.52 361.679 327.52C361.089 327.52 360.611 327.758 360.611 328.053C360.611 328.348 361.089 328.587 361.679 328.587Z" fill="#E6E6E6"/>
<path d="M359.158 329.846C359.747 329.846 360.226 329.607 360.226 329.312C360.226 329.018 359.747 328.779 359.158 328.779C358.568 328.779 358.09 329.018 358.09 329.312C358.09 329.607 358.568 329.846 359.158 329.846Z" fill="#E6E6E6"/>
<path d="M349.073 329.846C349.663 329.846 350.141 329.607 350.141 329.312C350.141 329.018 349.663 328.779 349.073 328.779C348.483 328.779 348.005 329.018 348.005 329.312C348.005 329.607 348.483 329.846 349.073 329.846Z" fill="#E6E6E6"/>
<path d="M351.594 328.587C352.184 328.587 352.662 328.348 352.662 328.053C352.662 327.758 352.184 327.52 351.594 327.52C351.004 327.52 350.526 327.758 350.526 328.053C350.526 328.348 351.004 328.587 351.594 328.587Z" fill="#E6E6E6"/>
<path d="M354.115 330.476C354.705 330.476 355.183 330.237 355.183 329.942C355.183 329.648 354.705 329.409 354.115 329.409C353.525 329.409 353.047 329.648 353.047 329.942C353.047 330.237 353.525 330.476 354.115 330.476Z" fill="#E6E6E6"/>
</svg>
