<svg width="108" height="86" viewBox="0 0 108 86" fill="none" xmlns="http://www.w3.org/2000/svg">
<g clip-path="url(#clip0)">
<path d="M75.4439 28.4226H59.3379V44.6032H75.4439V28.4226Z" fill="#FB7B00"/>
<path d="M70.1458 51.7354H40.053V68.3418H70.1458V51.7354Z" fill="#FB7B00"/>
<path d="M37.51 25.0161H23.947V44.8161H37.51V25.0161Z" fill="#FB7B00"/>
<path d="M71.4147 23.1293C70.8123 25.3665 68.7489 26.752 68.7489 26.752C68.7489 26.752 67.6623 24.5104 68.2647 22.2733C68.8671 20.0361 70.9304 18.6506 70.9304 18.6506C70.9304 18.6506 72.017 20.8922 71.4147 23.1293Z" fill="#FB7B00"/>
<path d="M65.9346 23.1293C66.537 25.3665 68.6003 26.752 68.6003 26.752C68.6003 26.752 69.687 24.5104 69.0846 22.2733C68.4822 20.0361 66.4189 18.6506 66.4189 18.6506C66.4189 18.6506 65.3322 20.8922 65.9346 23.1293Z" fill="#FB7B00"/>
<path d="M66.8198 22.6487C68.4728 24.2653 68.6747 26.7503 68.6747 26.7503C68.6747 26.7503 66.1966 26.6144 64.5436 24.9978C62.8906 23.3813 62.6887 20.8962 62.6887 20.8962C62.6887 20.8962 65.1668 21.0322 66.8198 22.6487Z" fill="#3F3D56"/>
<path d="M70.5294 22.6487C68.8765 24.2653 68.6746 26.7503 68.6746 26.7503C68.6746 26.7503 71.1527 26.6144 72.8056 24.9978C74.4586 23.3813 74.6605 20.8962 74.6605 20.8962C74.6605 20.8962 72.1824 21.0322 70.5294 22.6487Z" fill="#3F3D56"/>
<path d="M19.5574 17.4218C21.8637 17.4715 23.6984 19.1506 23.6984 19.1506C23.6984 19.1506 21.7937 20.7491 19.4874 20.6994C17.1811 20.6497 15.3464 18.9706 15.3464 18.9706C15.3464 18.9706 17.2511 17.3721 19.5574 17.4218Z" fill="#FB7B00"/>
<path d="M7.9623 9.51275C10.046 10.5072 12.4352 9.83286 12.4352 9.83286C12.4352 9.83286 11.4463 7.54609 9.3626 6.5516C7.27894 5.5571 4.88965 6.23148 4.88965 6.23148C4.88965 6.23148 5.87864 8.51826 7.9623 9.51275Z" fill="#FB7B00"/>
<path d="M8.17418 8.52448C10.4715 8.31356 12.4823 9.77494 12.4823 9.77494C12.4823 9.77494 10.7684 11.5783 8.47117 11.7892C6.17389 12.0001 4.16309 10.5387 4.16309 10.5387C4.16309 10.5387 5.8769 8.7354 8.17418 8.52448Z" fill="#3F3D56"/>
<path d="M16.5953 8.92396C16.3751 11.2309 17.8208 13.2575 17.8208 13.2575C17.8208 13.2575 19.6235 11.5438 19.8437 9.23689C20.0638 6.92994 18.6182 4.90332 18.6182 4.90332C18.6182 4.90332 16.8155 6.61701 16.5953 8.92396Z" fill="#3F3D56"/>
<path d="M27.4142 23.0725C26.2093 25.0488 26.6238 27.507 26.6238 27.507C26.6238 27.507 28.9919 26.7611 30.1969 24.7849C31.4018 22.8086 30.9873 20.3503 30.9873 20.3503C30.9873 20.3503 28.6191 21.0962 27.4142 23.0725Z" fill="#3F3D56"/>
<path d="M23.9186 44.5597L24.0942 44.4405C23.4753 43.5381 23.1373 42.4713 23.1233 41.3755C23.1282 39.7726 23.9119 38.29 24.6698 36.8562C24.8105 36.5901 24.9507 36.3248 25.0856 36.0597C25.6518 34.9787 26.103 33.8407 26.4317 32.6647C27.6073 28.2757 26.4499 23.0975 23.3356 18.813C20.8651 15.4142 17.1823 12.442 12.0769 9.72681L11.9778 9.91497C17.0541 12.6147 20.7133 15.5664 23.1645 18.9386C26.2413 23.1715 27.3862 28.2821 26.2271 32.6094C25.9021 33.771 25.4563 34.895 24.897 35.9628C24.7625 36.2269 24.6228 36.4912 24.4826 36.7564C23.7127 38.213 22.9165 39.7192 22.9114 41.3749C22.9254 42.5133 23.276 43.6219 23.9186 44.5597V44.5597Z" fill="#3F3D56"/>
<path d="M2.01325 10.0063C3.12514 10.0063 4.02651 9.1008 4.02651 7.98376C4.02651 6.86672 3.12514 5.96118 2.01325 5.96118C0.901364 5.96118 0 6.86672 0 7.98376C0 9.1008 0.901364 10.0063 2.01325 10.0063Z" fill="#3F3D56"/>
<path d="M39.4175 43.0065H25.6426V22.9937H39.4175V43.0065ZM25.8545 42.7936H39.2055V23.2066H25.8545V42.7936Z" fill="#3F3D56"/>
<path d="M36.0267 28.3162H27.3379V28.5291H36.0267V28.3162Z" fill="white"/>
<path d="M35.9866 30.6516H27.2979V30.8645H35.9866V30.6516Z" fill="white"/>
<path d="M35.9468 32.9871H27.2581V33.2H35.9468V32.9871Z" fill="white"/>
<path d="M35.9068 35.3228H27.218V35.5357H35.9068V35.3228Z" fill="white"/>
<path d="M35.8668 37.6582H27.178V37.8711H35.8668V37.6582Z" fill="white"/>
<path d="M35.827 39.9939H27.1382V40.2068H35.827V39.9939Z" fill="white"/>
<path d="M67.7088 53.8645H45.0332V54.0774H67.7088V53.8645Z" fill="white"/>
<path d="M67.669 56.3064H44.9934V56.5193H67.669V56.3064Z" fill="white"/>
<path d="M67.6289 58.7485H44.9534V58.9614H67.6289V58.7485Z" fill="white"/>
<path d="M67.5892 61.1904H44.9136V61.4033H67.5892V61.1904Z" fill="white"/>
<path d="M67.5491 63.6326H44.8735V63.8455H67.5491V63.6326Z" fill="white"/>
<path d="M73.6427 30.7646H63.0466V30.9775H73.6427V30.7646Z" fill="white"/>
<path d="M73.6027 33.1001H63.0066V33.313H73.6027V33.1001Z" fill="white"/>
<path d="M73.5629 35.4355H62.9668V35.6484H73.5629V35.4355Z" fill="white"/>
<path d="M73.5228 37.771H62.9268V37.9839H73.5228V37.771Z" fill="white"/>
<path d="M73.483 40.1067H62.887V40.3196H73.483V40.1067Z" fill="white"/>
<path d="M72.5831 66.5322H42.2783V49.7129H72.5831V66.5322ZM42.4902 66.3193H72.3712V49.9258H42.4902V66.3193Z" fill="#3F3D56"/>
<path d="M57.417 49.9526L57.3581 49.8969L39.2388 32.748L39.3841 32.593L57.4445 49.6863L68.6531 42.8092L68.7637 42.991L57.417 49.9526Z" fill="#3F3D56"/>
<path d="M77.4574 43.0063H61.1394V26.6128H77.4574V43.0063ZM61.3513 42.7934H77.2454V26.8257H61.3513V42.7934Z" fill="#3F3D56"/>
<path d="M101.161 7.08295C99.1842 3.72762 95.2736 3.57125 95.2736 3.57125C95.2736 3.57125 91.463 3.0817 89.0185 8.1919C86.7401 12.955 83.5955 17.5539 88.5123 18.6689L89.4004 15.8919L89.9504 18.8757C90.6504 18.9263 91.3527 18.9383 92.0541 18.9118C97.3196 18.741 102.334 18.9618 102.173 17.0635C101.958 14.5401 103.063 10.3114 101.161 7.08295Z" fill="#2F2E41"/>
<path d="M103.085 46.2856C103.085 46.2856 100.605 50.6875 102.507 51.0197C104.408 51.3519 105.648 47.1992 105.648 47.1992L103.085 46.2856Z" fill="#A0616A"/>
<path d="M107.963 25.6053C107.632 29.0935 107.136 47.5313 105.731 48.1127C104.325 48.6941 102.01 48.6941 102.01 48.6941V32.4156C102.01 32.4156 102.589 21.0373 104.656 19.7085H105.851C105.99 19.7084 106.127 19.741 106.251 19.8036C106.376 19.8661 106.483 19.957 106.566 20.0689C106.577 20.0831 106.587 20.098 106.597 20.113C107.134 20.9385 108.213 22.9617 107.963 25.6053Z" fill="#D0CDE1"/>
<path d="M86.5098 51.8917L86.8405 60.9445C86.8405 60.9445 85.7658 69.8312 86.6752 72.572L89.3206 72.9873C89.3206 72.9873 92.2967 64.1005 91.8834 60.9445L93.6195 51.8917L89.2379 46.3271L86.5098 51.8917Z" fill="#A0616A"/>
<path d="M96.5957 48.7357L97.0091 53.1375L98.7451 63.0208C98.7451 63.0208 99.7372 69.0837 101.804 72.9872L103.127 77.2229L105.359 76.3924C105.359 76.3924 106.02 67.6718 103.375 60.8614L102.961 52.473L100.151 47.739L96.5957 48.7357Z" fill="#A0616A"/>
<path d="M101.308 34.5334L89.9821 32.374C89.9821 32.374 86.6753 37.6064 85.6006 52.2238L88.1634 52.8882L88.9074 48.9847L89.4034 53.1373L98.1665 53.9679L98.9932 49.6491L99.5719 54.217L104.036 53.4696C104.036 53.4696 103.623 37.8555 101.308 34.5334Z" fill="#2F2E41"/>
<path d="M89.9408 72.2812H86.0553L85.6419 74.7728C85.6419 74.7728 80.6817 82.0815 84.4018 81.6663C88.122 81.251 88.2047 79.2577 88.2047 79.2577C88.2047 79.2577 89.7754 77.7628 89.9408 77.0153C90.1061 76.2678 89.5274 74.4406 89.5274 74.4406L89.9408 72.2812Z" fill="#2F2E41"/>
<path d="M105.648 74.856L102.011 75.6034V81.0019C102.011 81.0019 100.936 86.3173 103.995 85.9851C107.054 85.6529 106.558 81.168 106.558 81.168L105.648 74.856Z" fill="#2F2E41"/>
<path d="M94.405 15.8881C96.8248 15.8881 98.7865 13.9174 98.7865 11.4863C98.7865 9.05524 96.8248 7.08447 94.405 7.08447C91.9851 7.08447 90.0234 9.05524 90.0234 11.4863C90.0234 13.9174 91.9851 15.8881 94.405 15.8881Z" fill="#A0616A"/>
<path d="M93.5781 15.1406C93.5781 15.1406 94.9008 18.0475 94.5702 18.5458C94.2395 19.0441 101.184 18.2136 101.184 18.2136C101.184 18.2136 98.0423 13.4795 98.0423 12.4829L93.5781 15.1406Z" fill="#A0616A"/>
<path d="M83.079 42.2158C83.079 42.2158 80.5989 46.6176 82.5003 46.9498C84.4017 47.2821 85.6418 43.1294 85.6418 43.1294L83.079 42.2158Z" fill="#A0616A"/>
<path opacity="0.15" d="M103.333 28.5952C103.333 28.5952 104.077 32.4987 103.168 34.6581C102.897 35.3017 102.486 35.4803 102.01 35.4222V32.4156C102.01 32.4156 102.589 21.0373 104.656 19.7085H105.851C105.99 19.7084 106.127 19.741 106.251 19.8036C106.376 19.8661 106.483 19.957 106.566 20.0689L103.333 28.5952Z" fill="black"/>
<path d="M100.563 16.4497C99.4817 16.6825 95.6681 17.4745 94.2068 17.3935C94.1169 17.3882 94.0271 17.4052 93.9452 17.4429L92.9995 17.8814L88.6788 19.9375C88.5674 19.9906 88.4771 20.0798 88.4225 20.1909C88.3679 20.3019 88.3523 20.4282 88.3781 20.5493L89.933 27.839C89.9584 27.9575 89.9441 28.0811 89.8922 28.1905C89.8403 28.2999 89.7539 28.389 89.6463 28.4439C88.3828 29.0849 84.6541 31.297 89.6927 32.914C95.645 34.8243 96.9677 34.409 98.2078 34.0768C99.4478 33.7446 101.928 36.8175 102.837 34.6582C103.643 32.746 103.151 29.4662 103.028 28.7403C103.012 28.6438 103.022 28.5446 103.057 28.4532L106.135 20.3356C106.183 20.209 106.182 20.069 106.134 19.9425C106.086 19.8161 105.992 19.7121 105.872 19.6505L102.336 17.8378C102.285 17.8117 102.238 17.7776 102.197 17.7369L101.064 16.5985C101 16.5337 100.92 16.486 100.833 16.46C100.745 16.434 100.653 16.4305 100.563 16.4497Z" fill="#D0CDE1"/>
<path d="M89.362 20.0408H88.7019C88.5853 20.0408 88.4723 20.0816 88.3825 20.1563C88.2927 20.231 88.2317 20.3348 88.2099 20.4499L86.0552 31.8343L83.9058 38.9769C83.9058 38.9769 78.6976 41.5516 82.5831 42.9635C86.4686 44.3754 88.4527 43.8771 88.0393 42.299C87.626 40.721 91.5941 30.4224 91.5941 30.4224L89.362 20.0408Z" fill="#D0CDE1"/>
<path d="M95.7523 6.42885C97.3139 6.42885 98.5799 5.15705 98.5799 3.5882C98.5799 2.01936 97.3139 0.747559 95.7523 0.747559C94.1907 0.747559 92.9248 2.01936 92.9248 3.5882C92.9248 5.15705 94.1907 6.42885 95.7523 6.42885Z" fill="#2F2E41"/>
<path d="M92.627 2.84064C92.6271 2.13907 92.8856 1.46233 93.3527 0.940805C93.8198 0.419274 94.4625 0.0898422 95.157 0.015968C95.0581 0.00544476 94.9587 0.000115174 94.8593 5.32308e-07C94.4878 -0.000227918 94.12 0.0730787 93.7767 0.215732C93.4335 0.358386 93.1216 0.56759 92.8588 0.831391C92.5961 1.09519 92.3876 1.40842 92.2454 1.75318C92.1032 2.09793 92.03 2.46746 92.03 2.84065C92.03 3.21383 92.1032 3.58336 92.2454 3.92812C92.3876 4.27287 92.5961 4.5861 92.8588 4.8499C93.1216 5.1137 93.4335 5.32291 93.7767 5.46556C94.12 5.60821 94.4878 5.68152 94.8593 5.68129C94.9587 5.68118 95.0581 5.67585 95.157 5.66532C94.4625 5.59145 93.8198 5.26202 93.3527 4.74049C92.8856 4.21896 92.6271 3.54222 92.627 2.84064V2.84064Z" fill="#2F2E41"/>
<path d="M100.287 6.75944L96.4234 4.72632L91.0882 5.55802L89.9844 10.456L92.7321 10.3497L93.4997 8.55038V10.3201L94.7677 10.2711L95.5036 7.40634L95.9635 10.456L100.471 10.3636L100.287 6.75944Z" fill="#2F2E41"/>
<path d="M98.7452 11.7977C99.0648 11.7977 99.3239 11.3422 99.3239 10.7803C99.3239 10.2184 99.0648 9.76294 98.7452 9.76294C98.4256 9.76294 98.1665 10.2184 98.1665 10.7803C98.1665 11.3422 98.4256 11.7977 98.7452 11.7977Z" fill="#A0616A"/>
</g>
<defs>
<clipPath id="clip0">
<rect width="108" height="86" fill="white"/>
</clipPath>
</defs>
</svg>
