<svg width="15" height="14" viewBox="0 0 15 14" fill="none" xmlns="http://www.w3.org/2000/svg">
<path d="M0.924111 4.86204L5.13925 4.24944L7.02353 0.429425C7.07499 0.324835 7.15966 0.240167 7.26425 0.188702C7.52655 0.0592102 7.8453 0.16712 7.97646 0.429425L9.86073 4.24944L14.0759 4.86204C14.1921 4.87864 14.2983 4.93343 14.3797 5.01644C14.478 5.11752 14.5322 5.25351 14.5303 5.39452C14.5285 5.53554 14.4707 5.67005 14.3697 5.76849L11.32 8.74183L12.0405 12.9404C12.0574 13.038 12.0466 13.1385 12.0093 13.2303C11.972 13.3222 11.9098 13.4017 11.8296 13.46C11.7494 13.5182 11.6545 13.5528 11.5556 13.5599C11.4567 13.5669 11.3579 13.5461 11.2702 13.4998L7.49999 11.5176L3.72978 13.4998C3.62685 13.5546 3.50731 13.5729 3.39276 13.553C3.1039 13.5032 2.90966 13.2292 2.95946 12.9404L3.67997 8.74183L0.630263 5.76849C0.547256 5.68714 0.492471 5.58089 0.475869 5.46468C0.431045 5.17415 0.633584 4.90521 0.924111 4.86204Z" fill="black"/>
</svg>
